<?xml version="1.0" encoding="UTF-8"?>
<svg xmlns="http://www.w3.org/2000/svg" version="1.1" viewBox="0 0 804 719.5">
  <!-- Generator: Adobe Illustrator 30.1.0, SVG Export Plug-In . SVG Version: 2.1.1 Build 136)  -->
  <defs>
    <style>
      .st0 {
        fill: #0e81db;
      }

      .st1 {
        fill: #1d2330;
      }

      .st2 {
        stroke: #b3b3b3;
      }

      .st2, .st3, .st4, .st5 {
        fill: none;
        stroke-miterlimit: 10;
      }

      .st6 {
        fill: #828d95;
      }

      .st7 {
        opacity: .9;
      }

      .st3 {
        stroke: #d0d0d0;
      }

      .st8 {
        fill: #00a9f4;
      }

      .st9 {
        fill: #2c5779;
      }

      .st10, .st5 {
        display: none;
      }

      .st4, .st5 {
        stroke: #0e81db;
      }
    </style>
  </defs>
  <g id="Layer_2" class="st10">
    <rect class="st1" width="804" height="719.5"/>
  </g>
  <g id="Layer_1">
    <g id="Rules_and_guides">
      <rect class="st8" x="283.2" y="328.4" width="40" height="155"/>
      <rect class="st9" x="214.1" y="385.7" width="40" height="97.6"/>
      <rect class="st9" x="147.1" y="412.1" width="40" height="71.3"/>
      <rect class="st6" x="79.1" y="421.4" width="40" height="62"/>
      <line class="st2" x1="79.1" y1="483.3" x2="323.2" y2="483.3"/>
      <g>
        <path class="st0" d="M79.6,502.9c1.4.3,2.2,1.3,2.2,2.7s-.5,2.1-1.5,2.6c-.5.3-1.2.5-2.5.5h-4.4v-10.9h4.2c1.1,0,2.1,0,2.9.7.6.5.9,1.2.9,2.1,0,1.2-.7,2-1.8,2.4ZM79.3,498.9c-.4-.2-.8-.3-1.8-.3h-3.1v3.9h3.1c1,0,1.4,0,1.8-.3.6-.3,1.1-.9,1.1-1.7,0-.8-.4-1.4-1.1-1.7ZM74.4,507.7h3.3c.7,0,1.6,0,2.2-.5.5-.4.8-1,.8-1.7s-.3-1.3-.8-1.7c-.6-.5-1.5-.5-2.2-.5h-3.2v4.3Z"/>
        <path class="st0" d="M87,500.8c2.1,0,3.5,1.6,3.5,4s-1.3,4-3.5,4-3.5-1.6-3.5-4c0-2.4,1.3-4,3.5-4ZM87,508c1.5,0,2.5-1.2,2.5-3.2s-1-3.2-2.5-3.2-2.5,1.2-2.5,3.2,1,3.2,2.5,3.2Z"/>
        <path class="st0" d="M91.8,501h1.5v-2.8l.9-.2v3.1h1.8v.7h-1.8v5.1c0,.8.2,1.1.9,1.1s.7-.1,1-.2v.9c-.3.1-.7.2-1.2.2-1,0-1.6-.4-1.6-1.7v-5.4h-1.5v-.7h0Z"/>
        <path class="st0" d="M97.2,501h1.5v-2.8l.9-.2v3.1h1.8v.7h-1.8v5.1c0,.8.2,1.1.9,1.1s.7-.1,1-.2v.9c-.3.1-.7.2-1.2.2-1,0-1.6-.4-1.6-1.7v-5.4h-1.5v-.7Z"/>
        <path class="st0" d="M106.5,500.8c2.1,0,3.5,1.6,3.5,4s-1.3,4-3.5,4-3.5-1.6-3.5-4,1.3-4,3.5-4ZM106.5,508c1.5,0,2.5-1.2,2.5-3.2s-1-3.2-2.5-3.2-2.5,1.2-2.5,3.2,1,3.2,2.5,3.2Z"/>
        <path class="st0" d="M121.2,504.5c0-1.2,0-1.9-.4-2.3-.2-.3-.5-.5-1.1-.5-1.3,0-2,1.1-2,2.9v4.1h-.9v-4.1c0-1.2,0-1.9-.4-2.3-.2-.3-.5-.5-1.1-.5-1.3,0-2,1.1-2,2.9v4.1h-.9v-7.6h.9v1.3h0c.3-.9,1.3-1.5,2.3-1.5s1.9.5,2,1.6c.4-1,1.2-1.6,2.4-1.6s1.1.1,1.5.5c.6.5.7,1.2.7,2.7v4.6h-.9v-4.1h0Z"/>
        <path class="st0" d="M72.1,522.9c0-2.5,1.3-4,3.2-4s2.1.7,2.5,1.5v-1.4h.9v10.7h-.9v-4.4c-.4.9-1.2,1.6-2.5,1.6-1.9,0-3.2-1.4-3.2-4ZM75.5,519.7c-1.5,0-2.4,1.1-2.4,3.2s.9,3.2,2.4,3.2,2.4-1.1,2.4-3.2c0-2.1-.9-3.2-2.3-3.2Z"/>
        <path class="st0" d="M81.5,519h.9v4.4c0,1,.1,1.6.5,2.1.3.3.7.5,1.4.5,1.6,0,2.2-1.3,2.2-2.4v-4.5h.9v7.6h-.9v-1.2h0c-.3.7-1.1,1.4-2.4,1.4s-1.4-.2-1.9-.7c-.4-.5-.7-1.1-.7-2.3v-4.8h0Z"/>
        <path class="st0" d="M95.5,521.3v3.8c0,.7.2.9.7.9s.4,0,.4,0v.7c-.1,0-.4.1-.8.1-.8,0-1.2-.3-1.2-1.2h0c-.4.6-1.2,1.3-2.5,1.3s-2.6-.7-2.6-2.2,1.4-2,3.2-2.3h.8c.9-.3,1.1-.4,1.1-1h0c0-1-.5-1.6-1.9-1.6s-2,.7-2,1.8h-.9c0-1.6,1.2-2.5,2.9-2.5s2.8.4,2.8,2.4ZM94.6,523.9v-1.4c-.1,0-.3.2-.6.2l-1.8.4c-1,.2-1.6.5-1.6,1.5s.8,1.5,1.8,1.5,2.3-.8,2.3-2.1Z"/>
        <path class="st0" d="M102.1,519.8c-.2,0-.4,0-.5,0-1.3,0-2.3,1-2.3,2.6v4.3h-.9v-7.6h.9v1.5h0c.3-.9,1.2-1.7,2.3-1.7s.3,0,.5,0v.9Z"/>
        <path class="st0" d="M103,519h1.5v-2.8l.9-.2v3.1h1.8v.7h-1.8v5.1c0,.8.2,1.1.9,1.1s.7-.1,1-.2v.9c-.3.1-.7.2-1.2.2-1,0-1.6-.4-1.6-1.7v-5.4h-1.5v-.7h0Z"/>
        <path class="st0" d="M110.3,517.3h-.9v-1.6h.9v1.6ZM110.3,526.6h-.9v-7.6h.9v7.6Z"/>
        <path class="st0" d="M114.1,526.6h-.9v-10.9h.9v10.9Z"/>
        <path class="st0" d="M123.2,524.8c-.4.9-1.4,2.1-3.3,2.1s-3.5-1.5-3.5-4,1.4-3.9,3.4-3.9,3.3,1.7,3.3,4h0c0,.1-5.8.1-5.8.1h0c0,2.1,1.2,3.1,2.6,3.1s2.2-1,2.6-1.7l.7.5ZM117.3,522.2h4.7c0-1.2-.8-2.5-2.3-2.5s-2.3,1-2.4,2.5Z"/>
      </g>
      <g>
        <path class="st0" d="M291.5,497.7h8v.9h-3.5v10h-1v-10h-3.5v-.9Z"/>
        <path class="st0" d="M304.2,500.8c2.1,0,3.5,1.6,3.5,4s-1.3,4-3.5,4-3.5-1.6-3.5-4,1.3-4,3.5-4ZM304.2,508c1.5,0,2.5-1.2,2.5-3.2s-1-3.2-2.5-3.2-2.5,1.2-2.5,3.2,1,3.2,2.5,3.2Z"/>
        <path class="st0" d="M310.9,507.3v4.4h-.9v-10.7h.9v1.4c.4-.8,1.3-1.5,2.5-1.5,1.9,0,3.2,1.5,3.2,4s-1.3,4-3.2,4c-1.3,0-2.1-.7-2.5-1.6ZM313.2,508c1.5,0,2.4-1.2,2.4-3.2s-.9-3.2-2.4-3.2-2.3,1.1-2.3,3.2c0,2,.9,3.2,2.4,3.2Z"/>
        <path class="st0" d="M278.8,522.9c0-2.5,1.3-4,3.2-4s2.1.7,2.5,1.5v-1.4h.9v10.7h-.9v-4.4c-.4.9-1.2,1.6-2.5,1.6-1.9,0-3.2-1.4-3.2-4ZM282.2,519.7c-1.5,0-2.4,1.1-2.4,3.2s.9,3.2,2.4,3.2,2.4-1.1,2.4-3.2-.9-3.2-2.3-3.2Z"/>
        <path class="st0" d="M288.2,519h.9v4.4c0,1,.1,1.6.5,2.1.3.3.7.5,1.4.5,1.6,0,2.2-1.3,2.2-2.4v-4.5h.9v7.6h-.9v-1.2h0c-.3.7-1.1,1.4-2.4,1.4s-1.4-.2-1.9-.7c-.4-.5-.7-1.1-.7-2.3v-4.8h0Z"/>
        <path class="st0" d="M302.2,521.3v3.8c0,.7.2.9.7.9s.4,0,.4,0v.7c-.1,0-.4.1-.8.1-.8,0-1.2-.3-1.2-1.2h0c-.4.6-1.2,1.3-2.5,1.3s-2.6-.7-2.6-2.2,1.4-2,3.2-2.3h.8c.9-.3,1.1-.4,1.1-1h0c0-1-.5-1.6-1.9-1.6s-2,.7-2,1.8h-.9c0-1.6,1.2-2.5,2.9-2.5s2.8.4,2.8,2.4ZM301.3,523.9v-1.4c-.1,0-.3.2-.6.2l-1.8.4c-1,.2-1.6.5-1.6,1.5s.8,1.5,1.8,1.5,2.3-.8,2.3-2.1Z"/>
        <path class="st0" d="M308.8,519.8c-.2,0-.4,0-.5,0-1.3,0-2.3,1-2.3,2.6v4.3h-.9v-7.6h.9v1.5h0c.3-.9,1.2-1.7,2.3-1.7s.3,0,.5,0v.9h0Z"/>
        <path class="st0" d="M309.7,519h1.5v-2.8l.9-.2v3.1h1.8v.7h-1.8v5.1c0,.8.2,1.1.9,1.1s.7-.1,1-.2v.9c-.3.1-.7.2-1.2.2-1,0-1.6-.4-1.6-1.7v-5.4h-1.5v-.7h0Z"/>
        <path class="st0" d="M317,517.3h-.9v-1.6h.9v1.6ZM317,526.6h-.9v-7.6h.9v7.6Z"/>
        <path class="st0" d="M320.8,526.6h-.9v-10.9h.9v10.9Z"/>
        <path class="st0" d="M329.9,524.8c-.4.9-1.4,2.1-3.3,2.1s-3.5-1.5-3.5-4,1.4-3.9,3.4-3.9,3.3,1.7,3.3,4h0c0,.1-5.8.1-5.8.1h0c0,2.1,1.2,3.1,2.6,3.1s2.2-1,2.6-1.7l.7.5ZM324.1,522.2h4.7c0-1.2-.8-2.5-2.3-2.5s-2.3,1-2.4,2.5Z"/>
      </g>
      <g>
        <path class="st0" d="M157.2,500.2c0-.8.9-2.7,3.4-2.7s3.4,1.3,3.4,2.8-.9,2.3-2.1,2.4c1.1.2,2.4,1.1,2.4,2.8s-1.4,3.2-3.7,3.2-3.5-1.1-3.6-3.1l1-.3c0,1.9,1.3,2.5,2.6,2.5s2.6-.9,2.6-2.4-.5-1.6-1.2-1.9c-.5-.2-1-.3-2.4-.3h-.8v-.8h.7c.8,0,1.7,0,2.4-.4.6-.3,1-.8,1-1.7s-.8-2-2.4-2-2.4,1-2.5,2.2l-.9-.3Z"/>
        <path class="st0" d="M170.4,501.8c-.2,0-.4,0-.5,0-1.3,0-2.3,1-2.3,2.6v4.3h-.9v-7.6h.9v1.5h0c.3-.9,1.2-1.7,2.3-1.7s.3,0,.5,0v.9h0Z"/>
        <path class="st0" d="M171.8,504.9c0-2.5,1.3-4,3.2-4s2.1.7,2.5,1.5v-4.6h.9v10.9h-.9v-1.4c-.4.9-1.2,1.6-2.5,1.6-1.9,0-3.2-1.4-3.2-4ZM175.1,501.7c-1.5,0-2.4,1.1-2.4,3.2s.9,3.2,2.4,3.2,2.4-1.1,2.4-3.2c0-2.1-.9-3.2-2.3-3.2Z"/>
      </g>
      <g>
        <path class="st0" d="M221.3,502.6c-.3-.6-.4-1.2-.4-1.7,0-1.8,1.3-3.3,3.5-3.3s3.6,1.6,3.6,3.5-1.6,3.7-3.1,4.9c-1,.8-2,1.5-2.4,1.7h5.6v.9h-6.9v-.9c.8-.6,2.4-1.7,3.8-2.9,1.2-1,2.1-2,2.1-3.7s-1.1-2.7-2.5-2.7-2.4,1.1-2.4,2.4.3,1.6.5,1.9l-1.2-.2Z"/>
        <path class="st0" d="M236.4,508.6h-.9v-4.1c0-1.2,0-1.9-.5-2.3-.3-.3-.8-.5-1.4-.5s-1.2.2-1.6.6c-.4.5-.6,1.1-.6,1.8v4.5h-.9v-7.6h.9v1.3h0c.3-.7,1.1-1.4,2.4-1.4s1.5.2,1.9.7c.5.5.7,1.1.7,2.8v4.3h0Z"/>
        <path class="st0" d="M238.6,504.9c0-2.5,1.3-4,3.2-4s2.1.7,2.5,1.5v-4.6h.9v10.9h-.9v-1.4c-.4.9-1.2,1.6-2.5,1.6-1.9,0-3.2-1.4-3.2-4ZM242,501.7c-1.5,0-2.4,1.1-2.4,3.2s.9,3.2,2.4,3.2,2.4-1.1,2.4-3.2-.9-3.2-2.3-3.2Z"/>
      </g>
      <g>
        <path class="st0" d="M460.9,502.9c1.4.3,2.2,1.3,2.2,2.7s-.5,2.1-1.5,2.6c-.5.3-1.2.5-2.5.5h-4.4v-10.9h4.2c1.1,0,2.1,0,2.9.7.6.5.9,1.2.9,2.1,0,1.2-.7,2-1.8,2.4ZM460.6,498.9c-.4-.2-.8-.3-1.8-.3h-3.1v3.9h3.1c1,0,1.4,0,1.8-.3.6-.3,1.1-.9,1.1-1.7,0-.8-.4-1.4-1.1-1.7ZM455.7,507.7h3.3c.7,0,1.6,0,2.2-.5.5-.4.8-1,.8-1.7s-.3-1.3-.8-1.7c-.6-.5-1.5-.5-2.2-.5h-3.2v4.3Z"/>
        <path class="st0" d="M468.3,500.8c2.1,0,3.5,1.6,3.5,4s-1.3,4-3.5,4-3.5-1.6-3.5-4,1.3-4,3.5-4ZM468.3,508c1.5,0,2.5-1.2,2.5-3.2s-1-3.2-2.5-3.2-2.5,1.2-2.5,3.2,1,3.2,2.5,3.2Z"/>
        <path class="st0" d="M473.1,501h1.5v-2.8l.9-.2v3.1h1.8v.7h-1.8v5.1c0,.8.2,1.1.9,1.1s.7-.1,1-.2v.9c-.3.1-.7.2-1.2.2-1,0-1.6-.4-1.6-1.7v-5.4h-1.5v-.7h0Z"/>
        <path class="st0" d="M478.5,501h1.5v-2.8l.9-.2v3.1h1.8v.7h-1.8v5.1c0,.8.2,1.1.9,1.1s.7-.1,1-.2v.9c-.3.1-.7.2-1.2.2-1,0-1.6-.4-1.6-1.7v-5.4h-1.5v-.7h0Z"/>
        <path class="st0" d="M487.8,500.8c2.1,0,3.5,1.6,3.5,4s-1.3,4-3.5,4-3.5-1.6-3.5-4,1.3-4,3.5-4ZM487.8,508c1.5,0,2.5-1.2,2.5-3.2s-1-3.2-2.5-3.2-2.5,1.2-2.5,3.2c0,2,1,3.2,2.5,3.2Z"/>
        <path class="st0" d="M502.5,504.5c0-1.2,0-1.9-.4-2.3-.2-.3-.5-.5-1.1-.5-1.3,0-2,1.1-2,2.9v4.1h-.9v-4.1c0-1.2,0-1.9-.4-2.3-.2-.3-.5-.5-1.1-.5-1.3,0-2,1.1-2,2.9v4.1h-.9v-7.6h.9v1.3h0c.3-.9,1.3-1.5,2.3-1.5s1.9.5,2,1.6c.4-1,1.2-1.6,2.4-1.6s1.1.1,1.5.5c.6.5.7,1.2.7,2.7v4.6h-.9v-4.1h0Z"/>
        <path class="st0" d="M453.4,522.9c0-2.5,1.3-4,3.2-4s2.1.7,2.5,1.5v-1.4h.9v10.7h-.9v-4.4c-.4.9-1.2,1.6-2.5,1.6-1.9,0-3.2-1.4-3.2-4ZM456.8,519.7c-1.5,0-2.4,1.1-2.4,3.2s.9,3.2,2.4,3.2,2.4-1.1,2.4-3.2-.9-3.2-2.3-3.2Z"/>
        <path class="st0" d="M462.8,519h.9v4.4c0,1,.1,1.6.5,2.1.3.3.7.5,1.4.5,1.6,0,2.2-1.3,2.2-2.4v-4.5h.9v7.6h-.9v-1.2h0c-.3.7-1.1,1.4-2.4,1.4s-1.4-.2-1.9-.7c-.4-.5-.7-1.1-.7-2.3v-4.8h0Z"/>
        <path class="st0" d="M476.8,521.3v3.8c0,.7.2.9.7.9s.4,0,.4,0v.7c-.1,0-.4.1-.8.1-.8,0-1.2-.3-1.2-1.2h0c-.4.6-1.2,1.3-2.5,1.3s-2.6-.7-2.6-2.2,1.4-2,3.2-2.3h.8c.9-.3,1.1-.4,1.1-1h0c0-1-.5-1.6-1.9-1.6s-2,.7-2,1.8h-.9c0-1.6,1.2-2.5,2.9-2.5s2.8.4,2.8,2.4ZM475.9,523.9v-1.4c-.1,0-.3.2-.6.2l-1.8.4c-1,.2-1.6.5-1.6,1.5s.8,1.5,1.8,1.5,2.3-.8,2.3-2.1Z"/>
        <path class="st0" d="M483.4,519.8c-.2,0-.4,0-.5,0-1.3,0-2.3,1-2.3,2.6v4.3h-.9v-7.6h.9v1.5h0c.3-.9,1.2-1.7,2.3-1.7s.3,0,.5,0v.9h0Z"/>
        <path class="st0" d="M484.3,519h1.5v-2.8l.9-.2v3.1h1.8v.7h-1.8v5.1c0,.8.2,1.1.9,1.1s.7-.1,1-.2v.9c-.3.1-.7.2-1.2.2-1,0-1.6-.4-1.6-1.7v-5.4h-1.5v-.7h0Z"/>
        <path class="st0" d="M491.6,517.3h-.9v-1.6h.9v1.6ZM491.6,526.6h-.9v-7.6h.9v7.6Z"/>
        <path class="st0" d="M495.4,526.6h-.9v-10.9h.9v10.9Z"/>
        <path class="st0" d="M504.5,524.8c-.4.9-1.4,2.1-3.3,2.1s-3.5-1.5-3.5-4,1.4-3.9,3.4-3.9,3.3,1.7,3.3,4h0c0,.1-5.8.1-5.8.1h0c0,2.1,1.2,3.1,2.6,3.1s2.2-1,2.6-1.7l.7.5ZM498.6,522.2h4.7c0-1.2-.8-2.5-2.3-2.5s-2.3,1-2.4,2.5Z"/>
      </g>
      <g>
        <path class="st0" d="M672.8,497.7h8v.9h-3.5v10h-1v-10h-3.5v-.9Z"/>
        <path class="st0" d="M685.5,500.8c2.1,0,3.5,1.6,3.5,4s-1.3,4-3.5,4-3.5-1.6-3.5-4,1.3-4,3.5-4ZM685.5,508c1.5,0,2.5-1.2,2.5-3.2s-1-3.2-2.5-3.2-2.5,1.2-2.5,3.2,1,3.2,2.5,3.2Z"/>
        <path class="st0" d="M692.2,507.3v4.4h-.9v-10.7h.9v1.4c.4-.8,1.3-1.5,2.5-1.5,1.9,0,3.2,1.5,3.2,4s-1.3,4-3.2,4c-1.3,0-2.1-.7-2.5-1.6ZM694.5,508c1.5,0,2.4-1.2,2.4-3.2s-.9-3.2-2.4-3.2-2.3,1.1-2.3,3.2.9,3.2,2.4,3.2Z"/>
        <path class="st0" d="M660.1,522.9c0-2.5,1.3-4,3.2-4s2.1.7,2.5,1.5v-1.4h.9v10.7h-.9v-4.4c-.4.9-1.2,1.6-2.5,1.6-1.9,0-3.2-1.4-3.2-4ZM663.5,519.7c-1.5,0-2.4,1.1-2.4,3.2s.9,3.2,2.4,3.2,2.4-1.1,2.4-3.2-.9-3.2-2.3-3.2Z"/>
        <path class="st0" d="M669.5,519h.9v4.4c0,1,.1,1.6.5,2.1.3.3.7.5,1.4.5,1.6,0,2.2-1.3,2.2-2.4v-4.5h.9v7.6h-.9v-1.2h0c-.3.7-1.1,1.4-2.4,1.4s-1.4-.2-1.9-.7c-.4-.5-.7-1.1-.7-2.3v-4.8h0Z"/>
        <path class="st0" d="M683.5,521.3v3.8c0,.7.2.9.7.9s.4,0,.4,0v.7c-.1,0-.4.1-.8.1-.8,0-1.2-.3-1.2-1.2h0c-.4.6-1.2,1.3-2.5,1.3s-2.6-.7-2.6-2.2,1.4-2,3.2-2.3h.8c.9-.3,1.1-.4,1.1-1h0c0-1-.5-1.6-1.9-1.6s-2,.7-2,1.8h-.9c0-1.6,1.2-2.5,2.9-2.5s2.8.4,2.8,2.4ZM682.6,523.9v-1.4c-.1,0-.3.2-.6.2l-1.8.4c-1,.2-1.6.5-1.6,1.5s.8,1.5,1.8,1.5,2.3-.8,2.3-2.1Z"/>
        <path class="st0" d="M690.1,519.8c-.2,0-.4,0-.5,0-1.3,0-2.3,1-2.3,2.6v4.3h-.9v-7.6h.9v1.5h0c.3-.9,1.2-1.7,2.3-1.7s.3,0,.5,0v.9h0Z"/>
        <path class="st0" d="M691,519h1.5v-2.8l.9-.2v3.1h1.8v.7h-1.8v5.1c0,.8.2,1.1.9,1.1s.7-.1,1-.2v.9c-.3.1-.7.2-1.2.2-1,0-1.6-.4-1.6-1.7v-5.4h-1.5v-.7h0Z"/>
        <path class="st0" d="M698.3,517.3h-.9v-1.6h.9v1.6ZM698.3,526.6h-.9v-7.6h.9v7.6Z"/>
        <path class="st0" d="M702.1,526.6h-.9v-10.9h.9v10.9Z"/>
        <path class="st0" d="M711.2,524.8c-.4.9-1.4,2.1-3.3,2.1s-3.5-1.5-3.5-4,1.4-3.9,3.4-3.9,3.3,1.7,3.3,4h0c0,.1-5.8.1-5.8.1h0c0,2.1,1.2,3.1,2.6,3.1s2.2-1,2.6-1.7l.7.5ZM705.4,522.2h4.7c0-1.2-.8-2.5-2.3-2.5s-2.3,1-2.4,2.5Z"/>
      </g>
      <g>
        <path class="st0" d="M538.5,500.2c0-.8.9-2.7,3.4-2.7s3.4,1.3,3.4,2.8-.9,2.3-2.1,2.4c1.1.2,2.4,1.1,2.4,2.8s-1.4,3.2-3.7,3.2-3.5-1.1-3.6-3.1l1-.3c0,1.9,1.3,2.5,2.6,2.5s2.6-.9,2.6-2.4-.5-1.6-1.2-1.9c-.5-.2-1-.3-2.4-.3h-.8v-.8h.7c.8,0,1.7,0,2.4-.4.6-.3,1-.8,1-1.7s-.8-2-2.4-2-2.4,1-2.5,2.2l-.9-.3Z"/>
        <path class="st0" d="M551.7,501.8c-.2,0-.4,0-.5,0-1.3,0-2.3,1-2.3,2.6v4.3h-.9v-7.6h.9v1.5h0c.3-.9,1.2-1.7,2.3-1.7s.3,0,.5,0v.9h0Z"/>
        <path class="st0" d="M553.1,504.9c0-2.5,1.3-4,3.2-4s2.1.7,2.5,1.5v-4.6h.9v10.9h-.9v-1.4c-.4.9-1.2,1.6-2.5,1.6-1.9,0-3.2-1.4-3.2-4ZM556.4,501.7c-1.5,0-2.4,1.1-2.4,3.2s.9,3.2,2.4,3.2,2.4-1.1,2.4-3.2c0-2.1-.9-3.2-2.3-3.2Z"/>
      </g>
      <g>
        <path class="st0" d="M605.4,502.6c-.3-.6-.4-1.2-.4-1.7,0-1.8,1.3-3.3,3.5-3.3s3.6,1.6,3.6,3.5-1.6,3.7-3.1,4.9c-1,.8-2,1.5-2.4,1.7h5.6v.9h-6.9v-.9c.8-.6,2.4-1.7,3.8-2.9,1.2-1,2.1-2,2.1-3.7s-1.1-2.7-2.5-2.7-2.4,1.1-2.4,2.4.3,1.6.5,1.9l-1.2-.2Z"/>
        <path class="st0" d="M620.4,508.6h-.9v-4.1c0-1.2,0-1.9-.5-2.3-.3-.3-.8-.5-1.4-.5s-1.2.2-1.6.6c-.4.5-.6,1.1-.6,1.8v4.5h-.9v-7.6h.9v1.3h0c.3-.7,1.1-1.4,2.4-1.4s1.5.2,1.9.7c.5.5.7,1.1.7,2.8v4.3h0Z"/>
        <path class="st0" d="M622.6,504.9c0-2.5,1.3-4,3.2-4s2.1.7,2.5,1.5v-4.6h.9v10.9h-.9v-1.4c-.4.9-1.2,1.6-2.5,1.6-1.9,0-3.2-1.4-3.2-4ZM626,501.7c-1.5,0-2.4,1.1-2.4,3.2s.9,3.2,2.4,3.2,2.4-1.1,2.4-3.2-.9-3.2-2.3-3.2Z"/>
      </g>
      <g>
        <path class="st0" d="M240.8,584c-.5-1.4-1.6-2.4-3.3-2.4-2.5,0-3.8,2.1-3.8,4.9s1.4,4.9,3.9,4.9,2.9-1.1,3.3-2.5l1.5.5c-.5,1.7-2,3.4-4.9,3.4s-5.5-2.6-5.5-6.3,2.1-6.3,5.5-6.3,4.2,1.6,4.7,3.1l-1.4.7Z"/>
        <path class="st0" d="M248,583.9c2.5,0,4.1,1.8,4.1,4.5s-1.5,4.5-4.1,4.5-4.1-1.7-4.1-4.5c0-2.7,1.5-4.5,4.1-4.5ZM248,591.6c1.5,0,2.6-1.2,2.6-3.3s-1-3.3-2.6-3.3-2.5,1.2-2.5,3.3,1,3.3,2.5,3.3Z"/>
        <path class="st0" d="M259.7,592.6v-4.6c0-1.8-.3-2.9-1.7-2.9s-2.1,1.1-2.1,2.8v4.8h-1.5v-8.6h1.5v1.3c.4-.9,1.4-1.5,2.6-1.5s2.1.6,2.4,1.6c.5-.9,1.4-1.6,2.8-1.6s2.7,1.2,2.7,3.2v5.5h-1.5v-4.6c0-1.8-.3-2.9-1.7-2.9s-2.1,1.1-2.1,2.8v4.8h-1.5Z"/>
        <path class="st0" d="M270.8,591.4v4.7h-1.5v-12h1.5v1.3c.4-.8,1.4-1.5,2.7-1.5,2.2,0,3.7,1.7,3.7,4.5s-1.5,4.5-3.7,4.5c-1.3,0-2.2-.6-2.7-1.5ZM273.2,591.6c1.5,0,2.4-1.2,2.4-3.2s-1-3.2-2.5-3.2-2.4,1.2-2.4,3.3c0,2,1,3.2,2.4,3.2Z"/>
        <path class="st0" d="M279.3,586.8c0-1.9,1.3-2.9,3.4-2.9s3.3.5,3.3,2.6c0,.5,0,1,0,1.5v2.9c0,.7.2.9.6.9s.2,0,.3,0v1c-.2,0-.5.1-.9.1-.8,0-1.3-.3-1.4-1.2-.4.4-1.2,1.2-2.8,1.2s-3-.9-3-2.5,1.5-2.3,3.4-2.6l1.1-.2c.8-.1,1.2-.3,1.2-.9s-.4-1.5-1.9-1.5-2,.7-2,1.8h-1.4ZM284.1,591.1c.4-.4.6-.8.6-1.7v-1.2c0,0-.1.2-.7.3l-1.6.3c-1.2.3-1.8.6-1.8,1.5s.8,1.4,1.8,1.4,1.3-.2,1.7-.6Z"/>
        <path class="st0" d="M296.1,592.6h-1.5v-4.7c0-2.1-.6-2.8-1.9-2.8s-2.2,1.2-2.2,2.6v5h-1.5v-8.6h1.5v1.3c.4-.8,1.3-1.5,2.7-1.5,2.1,0,2.9,1.4,2.9,3.5v5.3h0Z"/>
        <path class="st0" d="M300.5,582.3h-1.5v-1.9h1.5v1.9ZM300.5,592.6h-1.5v-8.6h1.5v8.6Z"/>
        <path class="st0" d="M304.4,588.6c0,1.9,1.1,2.9,2.6,2.9s2.3-1,2.7-1.7l1.1.8c-.5.9-1.8,2.2-3.8,2.2s-4.1-1.6-4.1-4.5,1.7-4.4,4.1-4.4,3.9,1.9,3.9,4.5v.3h-6.4ZM309.3,587.5c0-1.3-.8-2.5-2.3-2.5s-2.4,1-2.5,2.5h4.8Z"/>
        <path class="st0" d="M318.4,586.2c-.5-.6-1.3-1.1-2.3-1.1s-1.7.4-1.7,1.2.6,1,1.8,1.3l1.1.3c1.4.3,2.5.8,2.5,2.3s-1.6,2.7-3.5,2.7-3.2-.9-3.7-1.8l1.1-.9c.5.8,1.4,1.4,2.7,1.4s1.9-.5,1.9-1.3-.6-.9-1.6-1.2l-1.2-.3c-1.5-.3-2.5-.9-2.5-2.4s1.6-2.6,3.2-2.6,2.7.6,3.3,1.3l-1,1Z"/>
        <path class="st0" d="M323.6,580.4v2.1c0,1.3-.3,2.6-1.8,2.7v-1c.6-.1.9-.6.9-1.5v-.2h-.8v-2.2h1.8Z"/>
        <path class="st0" d="M335.9,592.6l-2-5.6c-.4-1.2-1.4-4.2-1.6-5.1h0c0,.5.1,3.7.1,5v5.7h-1.5v-12.2h2.2l2.3,6.3c.5,1.4,1.2,3.5,1.3,3.9h0c.1-.5.7-2.4,1.1-3.6l2.3-6.6h2.2v12.2h-1.5v-5.8c0-1.3.1-4.3.2-5.1h0c-.3,1-1.1,3.8-1.4,4.7l-2.1,6.1h-1.3Z"/>
        <path class="st0" d="M351.1,586.8c-.4-1.1-1.1-1.7-2.2-1.7s-2.5,1.2-2.5,3.2,1,3.2,2.5,3.2,1.9-.6,2.3-1.6l1.2.7c-.5,1.1-1.7,2.2-3.5,2.2s-4-1.7-4-4.5,1.7-4.5,4-4.5,3,.9,3.5,2.3l-1.3.7Z"/>
        <path class="st0" d="M364.8,592.6h-2l-4.3-6.2-2.2,2.2v4h-1.6v-12.2h1.6v6.3l6.1-6.3h2.1l-4.9,4.9,5.1,7.3Z"/>
        <path class="st0" d="M368,582.3h-1.5v-1.9h1.5v1.9ZM368,592.6h-1.5v-8.6h1.5v8.6Z"/>
        <path class="st0" d="M378.1,592.6h-1.5v-4.7c0-2.1-.6-2.8-1.9-2.8s-2.2,1.2-2.2,2.6v5h-1.5v-8.6h1.5v1.3c.4-.8,1.3-1.5,2.7-1.5,2.1,0,2.9,1.4,2.9,3.5v5.3h0Z"/>
        <path class="st0" d="M386.1,586.2c-.5-.6-1.3-1.1-2.3-1.1s-1.7.4-1.7,1.2.6,1,1.8,1.3l1.1.3c1.4.3,2.5.8,2.5,2.3s-1.6,2.7-3.5,2.7-3.2-.9-3.7-1.8l1.1-.9c.5.8,1.4,1.4,2.7,1.4s1.9-.5,1.9-1.3-.6-.9-1.6-1.2l-1.2-.3c-1.5-.3-2.5-.9-2.5-2.4s1.6-2.6,3.2-2.6,2.7.6,3.3,1.3l-1,1Z"/>
        <path class="st0" d="M390.6,588.6c0,1.9,1.1,2.9,2.6,2.9s2.3-1,2.7-1.7l1.1.8c-.5.9-1.8,2.2-3.8,2.2s-4.1-1.6-4.1-4.5,1.7-4.4,4.1-4.4,3.9,1.9,3.9,4.5v.3h-6.4ZM395.5,587.5c0-1.3-.8-2.5-2.3-2.5s-2.4,1-2.5,2.5h4.8Z"/>
        <path class="st0" d="M406.1,584l-3.5,10c-.5,1.5-1,2.1-2.4,2.1s-.8,0-1.2,0v-1.3c.3,0,.6.1,1,.1.6,0,.9-.2,1.3-1.3l.3-.9-3.1-8.7h1.6l1.5,4.5.8,2.4h0c.2-.6.4-1.4.7-2.4l1.5-4.5h1.5Z"/>
        <path class="st0" d="M412.7,592.6v-12.2h3.3c1.8,0,3,0,4.1.7,1.6,1,2.5,3.1,2.5,5.4s-.6,3.8-1.8,4.9c-1.3,1.3-2.7,1.3-5,1.3h-3ZM414.3,591.2h1.7c1.5,0,2.6,0,3.5-.8.7-.7,1.3-2.1,1.3-3.9s-.5-3.1-1.4-3.9c-.9-.7-1.9-.8-3.7-.8h-1.4v9.4h0Z"/>
        <path class="st0" d="M426,588.6c0,1.9,1.1,2.9,2.6,2.9s2.3-1,2.7-1.7l1.1.8c-.5.9-1.8,2.2-3.8,2.2s-4.1-1.6-4.1-4.5,1.7-4.4,4.1-4.4,3.9,1.9,3.9,4.5v.3h-6.4ZM430.8,587.5c0-1.3-.8-2.5-2.3-2.5s-2.4,1-2.5,2.5h4.8Z"/>
        <path class="st0" d="M440,586.2c-.5-.6-1.3-1.1-2.3-1.1s-1.7.4-1.7,1.2.6,1,1.8,1.3l1.1.3c1.4.3,2.5.8,2.5,2.3s-1.6,2.7-3.5,2.7-3.2-.9-3.7-1.8l1.1-.9c.5.8,1.4,1.4,2.7,1.4s1.9-.5,1.9-1.3-.6-.9-1.6-1.2l-1.2-.3c-1.5-.3-2.5-.9-2.5-2.4s1.6-2.6,3.2-2.6,2.7.6,3.3,1.3l-1,1Z"/>
        <path class="st0" d="M445,582.3h-1.5v-1.9h1.5v1.9ZM445,592.6h-1.5v-8.6h1.5v8.6Z"/>
        <path class="st0" d="M449.3,593.1c0,1,.6,1.9,2.2,1.9s2.4-1.1,2.4-2.9v-.9c-.4.7-1.2,1.4-2.7,1.4-2.2,0-3.7-1.6-3.7-4.3s1.5-4.4,3.7-4.4,2.2.6,2.7,1.4v-1.2h1.5v8.2c0,2.8-1.2,4-3.9,4s-3.6-1.2-3.7-2.9l1.5-.2ZM451.5,585.1c-1.5,0-2.5,1.1-2.5,3.1s.9,3.1,2.4,3.1,2.4-1.1,2.4-3.1c0-2-.9-3.1-2.4-3.1Z"/>
        <path class="st0" d="M465.4,592.6h-1.5v-4.7c0-2.1-.6-2.8-1.9-2.8s-2.2,1.2-2.2,2.6v5h-1.5v-8.6h1.5v1.3c.4-.8,1.3-1.5,2.7-1.5,2.1,0,2.9,1.4,2.9,3.5v5.3h0Z"/>
        <path class="st0" d="M474.6,592.6h-1.6v-12.2h1.6v12.2Z"/>
        <path class="st0" d="M484.9,592.6h-1.5v-4.7c0-2.1-.6-2.8-1.9-2.8s-2.2,1.2-2.2,2.6v5h-1.5v-8.6h1.5v1.3c.4-.8,1.3-1.5,2.7-1.5,2.1,0,2.9,1.4,2.9,3.5v5.3h0Z"/>
        <path class="st0" d="M487.2,588.4c0-2.8,1.5-4.5,3.7-4.5s2.2.7,2.7,1.5v-4.9h1.5v12.2h-1.5v-1.3c-.5.9-1.4,1.5-2.7,1.5-2.2,0-3.7-1.7-3.7-4.5ZM491.2,585.1c-1.5,0-2.5,1.2-2.5,3.2s.9,3.2,2.4,3.2,2.4-1.2,2.4-3.2c0-2.1-1-3.3-2.4-3.3Z"/>
        <path class="st0" d="M499,588.6c0,1.9,1.1,2.9,2.6,2.9s2.3-1,2.7-1.7l1.1.8c-.5.9-1.8,2.2-3.8,2.2s-4.1-1.6-4.1-4.5,1.7-4.4,4.1-4.4,3.9,1.9,3.9,4.5v.3h-6.4ZM503.8,587.5c0-1.3-.8-2.5-2.3-2.5s-2.4,1-2.5,2.5h4.8Z"/>
        <path class="st0" d="M514.4,584l-2.8,4.1,3.1,4.5h-1.8l-2.2-3.3-2.2,3.3h-1.7l3.1-4.5-2.8-4.1h1.8l1.9,2.9,1.9-2.9h1.7Z"/>
        <path class="st0" d="M526.1,586.2c-.5-.6-1.3-1.1-2.3-1.1s-1.7.4-1.7,1.2.6,1,1.8,1.3l1.1.3c1.4.3,2.5.8,2.5,2.3s-1.6,2.7-3.5,2.7-3.2-.9-3.7-1.8l1.1-.9c.5.8,1.4,1.4,2.7,1.4s1.9-.5,1.9-1.3-.6-.9-1.6-1.2l-1.2-.3c-1.5-.3-2.5-.9-2.5-2.4s1.6-2.6,3.2-2.6,2.7.6,3.3,1.3l-1,1Z"/>
        <path class="st0" d="M535.4,586.8c-.4-1.1-1.1-1.7-2.2-1.7s-2.5,1.2-2.5,3.2,1,3.2,2.5,3.2,1.9-.6,2.3-1.6l1.2.7c-.5,1.1-1.7,2.2-3.5,2.2s-4-1.7-4-4.5,1.7-4.5,4-4.5,3,.9,3.5,2.3l-1.3.7Z"/>
        <path class="st0" d="M542.3,583.9c2.5,0,4.1,1.8,4.1,4.5s-1.5,4.5-4.1,4.5-4.1-1.7-4.1-4.5c0-2.7,1.5-4.5,4.1-4.5ZM542.3,591.6c1.5,0,2.6-1.2,2.6-3.3s-1-3.3-2.6-3.3-2.5,1.2-2.5,3.3c0,2.1,1,3.3,2.5,3.3Z"/>
        <path class="st0" d="M550.3,584v1.6c.3-.8,1.1-1.8,2.5-1.8s.3,0,.5,0v1.4c-.2,0-.4,0-.6,0-1.6,0-2.4,1.1-2.4,2.9v4.4h-1.5v-8.6h1.5Z"/>
        <path class="st0" d="M556.2,588.6c0,1.9,1.1,2.9,2.6,2.9s2.3-1,2.7-1.7l1.1.8c-.5.9-1.8,2.2-3.8,2.2s-4.1-1.6-4.1-4.5,1.7-4.4,4.1-4.4,3.9,1.9,3.9,4.5v.3h-6.4ZM561.1,587.5c0-1.3-.8-2.5-2.3-2.5s-2.4,1-2.5,2.5h4.8Z"/>
        <path class="st0" d="M570.2,586.2c-.5-.6-1.3-1.1-2.3-1.1s-1.7.4-1.7,1.2.6,1,1.8,1.3l1.1.3c1.4.3,2.5.8,2.5,2.3s-1.6,2.7-3.5,2.7-3.2-.9-3.7-1.8l1.1-.9c.5.8,1.4,1.4,2.7,1.4s1.9-.5,1.9-1.3-.6-.9-1.6-1.2l-1.2-.3c-1.5-.3-2.5-.9-2.5-2.4s1.6-2.6,3.2-2.6,2.7.6,3.3,1.3l-1,1Z"/>
      </g>
      <rect class="st8" x="664.7" y="164.1" width="40" height="319.2"/>
      <rect class="st9" x="596.4" y="250.9" width="40" height="232.4"/>
      <rect class="st9" x="528.2" y="246.3" width="40" height="237.1"/>
      <rect class="st6" x="459.9" y="250.9" width="40" height="232.4"/>
      <line class="st2" x1="459.9" y1="483.3" x2="704.7" y2="483.3"/>
      <g>
        <path class="st0" d="M467.9,240.9v-8.4c-.5.5-1.5.7-2.3.7s-.3,0-.5,0v-.8h.3c.9,0,1.4-.2,1.9-.5.5-.4.8-1,.8-1.9h.9v10.9h-1Z"/>
        <path class="st0" d="M472.7,234.6c.4-.5,1.2-1.1,2.5-1.1,2,0,3.5,1.4,3.5,3.7s-1.3,3.9-3.7,3.9-3.2-1-3.6-2.7l.9-.5c.2,1.1,1,2.3,2.7,2.3s2.6-1.2,2.6-3-.9-2.8-2.6-2.8-2.3.9-2.5,2.1l-.9-.2.4-6.3h5.9v.9h-5l-.2,3.8Z"/>
        <path class="st0" d="M482,239v1.8h-1.3v-1.8h1.3Z"/>
        <path class="st0" d="M484.2,235.4c0-3.2,1.3-5.7,4.1-5.7s4.1,2.5,4.1,5.7-1.1,5.6-4.1,5.6c-3,0-4.1-2.7-4.1-5.6ZM485.2,235.4c0,2.5.7,4.8,3,4.8s3-2.3,3-4.8-1-4.8-3-4.8c-2,0-3,2.1-3,4.8Z"/>
      </g>
      <g>
        <path class="st0" d="M538.8,235.6v-8.4c-.5.5-1.5.7-2.3.7s-.3,0-.5,0v-.8h.3c.9,0,1.4-.2,1.9-.5.5-.4.8-1,.8-1.9h.9v10.9h-1Z"/>
        <path class="st0" d="M543.6,229.3c.4-.5,1.2-1.1,2.5-1.1,2,0,3.5,1.4,3.5,3.7s-1.3,3.9-3.7,3.9-3.2-1-3.6-2.7l.9-.5c.2,1.1,1,2.3,2.7,2.3s2.6-1.2,2.6-3-.9-2.8-2.6-2.8-2.3.9-2.5,2.1l-.9-.2.4-6.3h5.9v.9h-5l-.2,3.8Z"/>
        <path class="st0" d="M552.9,233.8v1.8h-1.3v-1.8h1.3Z"/>
        <path class="st0" d="M555.1,227.2c0-.8.9-2.7,3.4-2.7s3.4,1.3,3.4,2.8-.9,2.3-2.1,2.4c1.1.2,2.4,1.1,2.4,2.8s-1.4,3.2-3.7,3.2-3.5-1.1-3.6-3.1l1-.3c0,1.9,1.3,2.5,2.6,2.5s2.6-.9,2.6-2.4-.5-1.6-1.2-1.9c-.5-.2-1-.3-2.4-.3h-.8v-.8h.7c.8,0,1.7,0,2.4-.4.6-.3,1-.8,1-1.7s-.8-2-2.4-2-2.4,1-2.5,2.2l-.9-.3Z"/>
      </g>
      <g>
        <path class="st0" d="M606.4,240.9v-8.4c-.5.5-1.5.7-2.3.7s-.3,0-.5,0v-.8h.3c.9,0,1.4-.2,1.9-.5.5-.4.8-1,.8-1.9h.9v10.9h-1Z"/>
        <path class="st0" d="M611.1,234.6c.4-.5,1.2-1.1,2.5-1.1,2,0,3.5,1.4,3.5,3.7s-1.3,3.9-3.7,3.9-3.2-1-3.6-2.7l.9-.5c.2,1.1,1,2.3,2.7,2.3s2.6-1.2,2.6-3-.9-2.8-2.6-2.8-2.3.9-2.5,2.1l-.9-.2.4-6.3h5.9v.9h-5l-.2,3.8Z"/>
        <path class="st0" d="M620.4,239v1.8h-1.3v-1.8h1.3Z"/>
        <path class="st0" d="M622.6,235.4c0-3.2,1.3-5.7,4.1-5.7s4.1,2.5,4.1,5.7-1.1,5.6-4.1,5.6c-3,0-4.1-2.7-4.1-5.6ZM623.7,235.4c0,2.5.7,4.8,3,4.8s3-2.3,3-4.8-1-4.8-3-4.8c-2,0-3,2.1-3,4.8Z"/>
      </g>
      <g>
        <path class="st0" d="M669.9,147.3c-.3-.6-.4-1.2-.4-1.7,0-1.8,1.3-3.3,3.5-3.3s3.6,1.6,3.6,3.5-1.6,3.7-3.1,4.9c-1,.8-2,1.5-2.4,1.7h5.6v.9h-6.9v-.9c.8-.6,2.4-1.7,3.8-2.9,1.2-1,2.1-2,2.1-3.7s-1.1-2.7-2.5-2.7-2.4,1.1-2.4,2.4.3,1.6.5,1.9l-1.2-.2Z"/>
        <path class="st0" d="M678.6,148c0-3.2,1.3-5.6,4.1-5.6s4.1,2.5,4.1,5.6-1.1,5.6-4.1,5.6c-3,0-4.1-2.7-4.1-5.6ZM679.6,148c0,2.5.7,4.8,3,4.8s3-2.3,3-4.8-1-4.8-3-4.8-3,2.1-3,4.8Z"/>
        <path class="st0" d="M690.2,151.6v1.8h-1.3v-1.8h1.3Z"/>
        <path class="st0" d="M698.7,145.2c-.1-.6-.5-2-2.3-2s-2.9,1.8-3,4.5c.5-.8,1.6-1.5,3-1.5s3.4,1.2,3.4,3.6-1.3,3.8-3.6,3.8-3.9-1.7-3.9-5.6,1.4-5.7,4.1-5.7,3,1.6,3.2,2.5l-.9.4ZM696.3,152.7c1.4,0,2.6-1.1,2.6-2.9s-1.2-2.8-2.6-2.8-2.5.9-2.8,1.7c.1,2.4,1.1,3.9,2.8,3.9Z"/>
      </g>
      <g>
        <rect class="st5" x="147.1" y="388.5" width="40" height="17.7"/>
        <path class="st4" d="M162.5,401.9h-1v-2.9h-5v-.7l5.1-7.3h.9v7.1h2v.9h-2v2.9ZM161.5,398.2v-3.6c0-.9,0-1.7,0-2.2h0c-.2.4-.7,1.2-1.3,2.1l-2.6,3.7h3.9Z"/>
        <path class="st4" d="M167.6,400.1v1.8h-1.3v-1.8h1.3Z"/>
        <path class="st4" d="M176.1,393.7c-.1-.6-.5-2-2.3-2s-2.9,1.8-3,4.5c.5-.8,1.6-1.5,3-1.5s3.4,1.2,3.4,3.6-1.3,3.8-3.6,3.8-3.9-1.7-3.9-5.6,1.4-5.7,4.1-5.7,3,1.6,3.2,2.5l-.9.4ZM173.7,401.2c1.4,0,2.6-1.1,2.6-2.9s-1.2-2.8-2.6-2.8-2.5.9-2.8,1.7c.1,2.4,1.1,3.9,2.8,3.9Z"/>
      </g>
      <g>
        <rect class="st5" x="79.1" y="397.2" width="40" height="17.7"/>
        <path class="st4" d="M94.1,410.7h-1v-2.9h-5v-.7l5.1-7.3h.9v7.1h2v.9h-2v2.9ZM93.2,406.9v-3.6c0-.9,0-1.7,0-2.2h0c-.2.4-.7,1.2-1.3,2.1l-2.6,3.7h3.9Z"/>
        <path class="st4" d="M99.2,408.8v1.8h-1.3v-1.8h1.3Z"/>
        <path class="st4" d="M101.4,405.2c0-3.2,1.3-5.6,4.1-5.6s4.1,2.5,4.1,5.6-1.1,5.6-4.1,5.6-4.1-2.7-4.1-5.6ZM102.5,405.2c0,2.5.7,4.8,3,4.8s3-2.3,3-4.8-1-4.8-3-4.8-3,2.1-3,4.8Z"/>
      </g>
      <g>
        <rect class="st5" x="214.1" y="362.1" width="40" height="17.7"/>
        <path class="st4" d="M230.3,367.4c-.1-.6-.5-2-2.3-2s-2.9,1.8-3,4.5c.5-.8,1.6-1.5,3-1.5s3.4,1.2,3.4,3.6-1.3,3.8-3.6,3.8-3.9-1.7-3.9-5.6,1.4-5.7,4.1-5.7,3,1.6,3.2,2.5l-.9.4ZM228,374.9c1.4,0,2.6-1.1,2.6-2.9s-1.2-2.8-2.6-2.8-2.5.9-2.8,1.7c.1,2.4,1.1,3.9,2.8,3.9Z"/>
        <path class="st4" d="M235,373.8v1.8h-1.3v-1.8h1.3Z"/>
        <path class="st4" d="M237.2,367.2c0-.8.9-2.7,3.4-2.7s3.4,1.3,3.4,2.8-.9,2.3-2.1,2.4c1.1.2,2.4,1.1,2.4,2.8s-1.4,3.2-3.7,3.2-3.5-1.1-3.6-3.1l1-.3c0,1.9,1.3,2.5,2.6,2.5s2.6-.9,2.6-2.4-.5-1.6-1.2-1.9c-.5-.2-1-.3-2.4-.3h-.8v-.8h.7c.8,0,1.7,0,2.4-.4.6-.3,1-.8,1-1.7s-.8-2-2.4-2-2.4,1-2.5,2.2l-.9-.3Z"/>
      </g>
      <g>
        <rect class="st5" x="284.1" y="305.4" width="39.1" height="17.7"/>
        <path class="st4" d="M292.1,318.8v-8.4c-.5.5-1.5.7-2.3.7s-.3,0-.5,0v-.8h.3c.9,0,1.4-.2,1.9-.5.5-.4.8-1,.8-1.9h.9v10.9h-1Z"/>
        <path class="st4" d="M295.6,313.4c0-3.2,1.3-5.6,4.1-5.6s4.1,2.5,4.1,5.6-1.1,5.6-4.1,5.6c-3,0-4.1-2.7-4.1-5.6ZM296.7,313.4c0,2.5.7,4.8,3,4.8s3-2.3,3-4.8-1-4.8-3-4.8-3,2.1-3,4.8Z"/>
        <path class="st4" d="M307.3,317v1.8h-1.3v-1.8h1.3Z"/>
        <path class="st4" d="M309.5,313.4c0-3.2,1.3-5.6,4.1-5.6s4.1,2.5,4.1,5.6-1.1,5.6-4.1,5.6c-3,0-4.1-2.7-4.1-5.6ZM310.6,313.4c0,2.5.7,4.8,3,4.8s3-2.3,3-4.8-1-4.8-3-4.8-3,2.1-3,4.8Z"/>
      </g>
      <g class="st7">
        <g>
          <path class="st0" d="M560.5,92.4h9.1v1.4h-3.8v10.8h-1.6v-10.8h-3.8v-1.4h0Z"/>
          <path class="st0" d="M573.3,104.6h-1.6v-12.2h4.6c1.2,0,1.9.1,2.5.4,1.2.5,2,1.6,2,3.2s-1.3,3.1-3.1,3.4l3.5,5.3h-2l-3.3-5.2h-2.6v5.2ZM576.1,98c1.1,0,1.6,0,2.1-.3.7-.3,1-.9,1-1.8s-.4-1.5-1.1-1.8c-.4-.2-.9-.3-2.1-.3h-2.7v4.2s2.8,0,2.8,0Z"/>
          <path class="st0" d="M590.6,95.1c-.7-.9-1.9-1.5-3.2-1.5s-2.6.8-2.6,1.9.7,1.6,2.2,1.9l1.6.4c2.2.5,3.6,1.2,3.6,3.3s-1.8,3.7-4.7,3.7-4.3-1.4-5.1-2.7l1.4-.9c.5,1.1,1.8,2.2,3.7,2.2s3-.9,3-2.2-.9-1.6-2.4-2l-1.6-.3c-1.9-.4-3.5-1.1-3.5-3.3s1.9-3.4,4.4-3.4,3.7,1,4.4,1.9l-1.2,1Z"/>
          <path class="st0" d="M596.2,102.4v2.1c0,1.3-.3,2.6-1.8,2.7v-1c.6-.1.9-.6.9-1.5v-.2h-.8v-2.2h1.8Z"/>
          <path class="st0" d="M601.1,97.6h-1.3v-5.2h-1.8v-.9h.4c1.2,0,1.7-.5,1.7-1.5h1v7.6h0Z"/>
          <path class="st0" d="M610.2,100.1c-2.2,0-2.8-2.1-2.8-3.9s.6-3.9,2.8-3.9,2.8,2.1,2.8,3.9c0,1.8-.6,3.9-2.8,3.9ZM610.2,99c1.1,0,1.5-1.3,1.5-2.8s-.5-2.8-1.5-2.8-1.5,1.3-1.5,2.8c0,1.5.5,2.8,1.5,2.8ZM619.5,92.4l-7.9,12.2h-1.3l7.9-12.2h1.3ZM619.5,104.8c-2.2,0-2.8-2.1-2.8-3.9s.6-3.9,2.8-3.9,2.8,2.1,2.8,3.9c0,1.8-.6,3.9-2.8,3.9ZM619.5,103.7c1.1,0,1.5-1.3,1.5-2.8s-.5-2.8-1.5-2.8-1.5,1.3-1.5,2.8c0,1.5.5,2.8,1.5,2.8Z"/>
        </g>
      </g>
      <g class="st7">
        <g>
          <path class="st0" d="M165.9,104.6h-1.6v-12.2h4.6c1.2,0,1.9.1,2.5.4,1.2.5,2,1.6,2,3.2s-1.3,3.1-3.1,3.4l3.5,5.3h-2l-3.3-5.2h-2.6v5.2h0ZM168.7,98c1.1,0,1.6,0,2.1-.3.7-.3,1-.9,1-1.8s-.4-1.5-1.1-1.8c-.4-.2-.9-.3-2.1-.3h-2.7v4.2s2.8,0,2.8,0Z"/>
          <path class="st0" d="M176.9,100.6c0,1.9,1.1,2.9,2.6,2.9s2.3-1,2.7-1.7l1.1.8c-.5.9-1.8,2.2-3.8,2.2s-4.1-1.6-4.1-4.5,1.7-4.4,4.1-4.4,3.9,1.9,3.9,4.5v.3h-6.4ZM181.8,99.5c0-1.3-.8-2.5-2.3-2.5s-2.4,1-2.5,2.5h4.8Z"/>
          <path class="st0" d="M192.6,96.1l-3.2,8.6h-1.5l-3-8.6h1.6l1.4,4.4c.3.9.5,1.6.8,2.4h0c.3-.8.6-1.6.9-2.4l1.5-4.3h1.5Z"/>
          <path class="st0" d="M195.4,100.6c0,1.9,1.1,2.9,2.6,2.9s2.3-1,2.7-1.7l1.1.8c-.5.9-1.8,2.2-3.8,2.2s-4.1-1.6-4.1-4.5,1.7-4.4,4.1-4.4,3.9,1.9,3.9,4.5v.3h-6.4ZM200.2,99.5c0-1.3-.8-2.5-2.3-2.5s-2.4,1-2.5,2.5h4.8Z"/>
          <path class="st0" d="M211.3,104.6h-1.5v-4.7c0-2.1-.6-2.8-1.9-2.8s-2.2,1.2-2.2,2.6v5h-1.5v-8.6h1.5v1.3c.4-.8,1.3-1.5,2.7-1.5,2.1,0,2.9,1.4,2.9,3.5v5.3h0Z"/>
          <path class="st0" d="M214.1,96.1h1.5v4.7c0,2.1.6,2.8,1.9,2.8s2.1-1.2,2.1-2.6v-5h1.5v8.6h-1.5v-1.3c-.4.8-1.2,1.5-2.6,1.5-2.1,0-2.9-1.3-2.9-3.5v-5.3h0Z"/>
          <path class="st0" d="M225,100.6c0,1.9,1.1,2.9,2.6,2.9s2.3-1,2.7-1.7l1.1.8c-.5.9-1.8,2.2-3.8,2.2s-4.1-1.6-4.1-4.5,1.7-4.4,4.1-4.4,3.9,1.9,3.9,4.5v.3h-6.4ZM229.9,99.5c0-1.3-.8-2.5-2.3-2.5s-2.4,1-2.5,2.5h4.8Z"/>
          <path class="st0" d="M235.5,102.4v2.1c0,1.3-.3,2.6-1.8,2.7v-1c.6-.1.9-.6.9-1.5v-.2h-.8v-2.2h1.8Z"/>
          <path class="st0" d="M244.9,100.1c-2.2,0-2.8-2.1-2.8-3.9s.6-3.9,2.8-3.9,2.8,2.1,2.8,3.9-.6,3.9-2.8,3.9ZM244.8,99c1.1,0,1.5-1.3,1.5-2.8s-.4-2.8-1.5-2.8-1.5,1.3-1.5,2.8.5,2.8,1.5,2.8ZM254.1,92.4l-7.9,12.2h-1.3l7.9-12.2h1.3ZM254.1,104.8c-2.2,0-2.8-2.1-2.8-3.9s.6-3.9,2.8-3.9,2.8,2.1,2.8,3.9-.6,3.9-2.8,3.9ZM254.1,103.7c1.1,0,1.5-1.3,1.5-2.8s-.4-2.8-1.5-2.8-1.5,1.3-1.5,2.8c0,1.5.4,2.8,1.5,2.8Z"/>
        </g>
      </g>
      <polyline class="st3" points="79.1 132.2 79.1 116.2 323.2 116.2 323.2 132.2"/>
      <polyline class="st3" points="704.7 551 704.7 567 79.1 567 79.1 551"/>
      <polyline class="st3" points="459.9 132.2 459.9 116.2 704.7 116.2 704.7 132.2"/>
    </g>
    <g id="Exhibit__x23_">
      <g id="Footnote_x2C__source">
        <g>
          <path class="st0" d="M3.1,622.7v-3.6c-.2.2-.7.3-1,.3s-.1,0-.2,0v-.4h.1c.4,0,.6,0,.8-.2.2-.2.3-.4.4-.8h.4v4.8h-.4Z"/>
          <path class="st0" d="M5,618.6h6v.7h-2.6v7.5h-.8v-7.5h-2.6v-.7Z"/>
          <path class="st0" d="M14.3,620.9c1.6,0,2.6,1.2,2.6,3s-1,3-2.6,3-2.6-1.2-2.6-3c0-1.8,1-3,2.6-3ZM14.3,626.3c1.1,0,1.8-.9,1.8-2.4s-.7-2.4-1.8-2.4-1.8.9-1.8,2.4.7,2.4,1.8,2.4Z"/>
          <path class="st0" d="M17.6,621h1.2v-2.1l.7-.2v2.3h1.4v.6h-1.4v3.8c0,.6.2.8.6.8s.6,0,.7-.2v.6c-.2,0-.5.2-.9.2-.7,0-1.2-.3-1.2-1.3v-4h-1.2s0-.6,0-.6Z"/>
          <path class="st0" d="M26.2,622.7v2.9c0,.5.2.7.5.7s.3,0,.3,0v.5c-.1,0-.3,0-.6,0-.6,0-.9-.2-.9-.9h0c-.3.4-.9,1-1.9,1s-1.9-.6-1.9-1.6,1.1-1.5,2.4-1.8h.6c.6-.2.8-.3.8-.8h0c0-.8-.4-1.2-1.4-1.2s-1.5.5-1.5,1.3h-.7c0-1.2.9-1.9,2.2-1.9,1.1,0,2.1.3,2.1,1.8ZM25.5,624.7v-1.1c0,0-.2.1-.5.2l-1.4.3c-.8.2-1.2.4-1.2,1.1s.6,1.1,1.3,1.1,1.7-.6,1.7-1.6Z"/>
          <path class="st0" d="M28.7,626.7h-.7v-8.2h.7v8.2Z"/>
          <path class="st0" d="M36.3,621.6c-.1,0-.3,0-.4,0-1,0-1.7.8-1.7,1.9v3.2h-.7v-5.7h.7v1.1h0c.2-.7.9-1.3,1.7-1.3s.3,0,.4,0v.7h0Z"/>
          <path class="st0" d="M42.2,625.3c-.3.6-1,1.5-2.5,1.5s-2.6-1.1-2.6-3,1-3,2.6-3,2.5,1.3,2.5,3h0c0,0-4.3,0-4.3,0h0c0,1.6.9,2.3,1.9,2.3s1.7-.7,1.9-1.3l.5.3ZM37.8,623.4h3.5c0-.9-.6-1.9-1.7-1.9s-1.7.7-1.8,1.9Z"/>
          <path class="st0" d="M42.9,621h1.2v-2.1l.7-.2v2.3h1.4v.6h-1.4v3.8c0,.6.2.8.6.8s.6,0,.7-.2v.6c-.2,0-.5.2-.9.2-.7,0-1.2-.3-1.2-1.3v-4h-1.2v-.6Z"/>
          <path class="st0" d="M47.3,621h.7v3.3c0,.7,0,1.2.4,1.6.2.2.5.4,1,.4,1.2,0,1.6-1,1.6-1.8v-3.4h.7v5.7h-.7v-.9h0c-.2.6-.8,1.1-1.8,1.1s-1.1-.2-1.4-.6c-.3-.4-.5-.9-.5-1.7v-3.6h0Z"/>
          <path class="st0" d="M56.4,621.6c-.1,0-.3,0-.4,0-1,0-1.7.8-1.7,1.9v3.2h-.7v-5.7h.7v1.1h0c.2-.7.9-1.3,1.7-1.3s.3,0,.4,0v.7Z"/>
          <path class="st0" d="M62.1,626.7h-.7v-3.1c0-.9,0-1.4-.4-1.8-.2-.2-.6-.4-1-.4s-.9.2-1.2.5c-.3.3-.5.9-.5,1.3v3.4h-.7v-5.7h.7v.9h0c.2-.6.9-1.1,1.8-1.1s1.1.2,1.4.6c.4.4.5.8.5,2.1v3.2h0Z"/>
          <path class="st0" d="M67.1,622.3c-.3-.4-.8-.7-1.5-.7s-1.3.3-1.3.9.4.8,1.1,1l.8.2c1,.2,1.7.6,1.7,1.6s-.9,1.7-2.2,1.7-2-.6-2.4-1.2l.6-.4c.4.6,1,1,1.8,1s1.4-.4,1.4-1.1-.5-.8-1.2-1l-.8-.2c-1-.2-1.6-.6-1.6-1.6s.9-1.6,2-1.6,1.6.4,2.1.9l-.5.5Z"/>
          <path class="st0" d="M71.4,621h1.2v-2.1l.7-.2v2.3h1.4v.6h-1.4v3.8c0,.6.2.8.6.8s.6,0,.7-.2v.6c-.2,0-.5.2-.9.2-.7,0-1.2-.3-1.2-1.3v-4h-1.2v-.6Z"/>
          <path class="st0" d="M78.1,620.9c1.6,0,2.6,1.2,2.6,3s-1,3-2.6,3-2.6-1.2-2.6-3,1-3,2.6-3ZM78.1,626.3c1.1,0,1.8-.9,1.8-2.4s-.7-2.4-1.8-2.4-1.8.9-1.8,2.4.7,2.4,1.8,2.4Z"/>
          <path class="st0" d="M88.2,622.3c-.3-.4-.8-.7-1.5-.7s-1.3.3-1.3.9.4.8,1.1,1l.8.2c1,.2,1.7.6,1.7,1.6s-.9,1.7-2.2,1.7-2-.6-2.4-1.2l.6-.4c.4.6,1,1,1.8,1s1.4-.4,1.4-1.1-.5-.8-1.2-1l-.8-.2c-1-.2-1.6-.6-1.6-1.6s.9-1.6,2-1.6,1.6.4,2.1.9l-.5.5Z"/>
          <path class="st0" d="M94.8,626.7h-.7v-3.1c0-.9,0-1.4-.4-1.8-.2-.2-.6-.4-1-.4s-.9.2-1.2.5c-.3.3-.5.9-.5,1.3v3.4h-.7v-8.2h.7v3.4c.2-.6.8-1.1,1.8-1.1s1.1.2,1.4.6c.4.4.5.8.5,2.1v3.2h0Z"/>
          <path class="st0" d="M100.7,622.7v2.9c0,.5.2.7.5.7s.3,0,.3,0v.5c-.1,0-.3,0-.6,0-.6,0-.9-.2-.9-.9h0c-.3.4-.9,1-1.9,1s-1.9-.6-1.9-1.6,1.1-1.5,2.4-1.8h.6c.6-.2.8-.3.8-.8h0c0-.8-.4-1.2-1.4-1.2s-1.5.5-1.5,1.3h-.7c0-1.2.9-1.9,2.2-1.9,1.1,0,2.1.3,2.1,1.8ZM100,624.7v-1.1c0,0-.2.1-.5.2l-1.4.3c-.8.2-1.2.4-1.2,1.1s.6,1.1,1.3,1.1,1.7-.6,1.7-1.6Z"/>
          <path class="st0" d="M105.3,621.6c-.1,0-.3,0-.4,0-1,0-1.7.8-1.7,1.9v3.2h-.7v-5.7h.7v1.1h0c.2-.7.9-1.3,1.7-1.3s.3,0,.4,0v.7h0Z"/>
          <path class="st0" d="M111.2,625.3c-.3.6-1,1.5-2.5,1.5s-2.6-1.1-2.6-3,1-3,2.6-3,2.5,1.3,2.5,3h0c0,0-4.3,0-4.3,0h0c0,1.6.9,2.3,1.9,2.3s1.7-.7,1.9-1.3l.5.3ZM106.9,623.4h3.6c0-.9-.6-1.9-1.7-1.9s-1.7.7-1.8,1.9Z"/>
          <path class="st0" d="M117.1,626.7h-.7v-3.1c0-.9,0-1.4-.4-1.8-.2-.2-.6-.4-1-.4s-.9.2-1.2.5c-.3.3-.5.9-.5,1.3v3.4h-.7v-8.2h.7v3.4c.2-.6.8-1.1,1.8-1.1s1.1.2,1.4.6c.4.4.5.8.5,2.1v3.2h0Z"/>
          <path class="st0" d="M121.1,620.9c1.6,0,2.6,1.2,2.6,3s-1,3-2.6,3-2.6-1.2-2.6-3c0-1.8,1-3,2.6-3ZM121.1,626.3c1.1,0,1.8-.9,1.8-2.4s-.7-2.4-1.8-2.4-1.8.9-1.8,2.4.7,2.4,1.8,2.4Z"/>
          <path class="st0" d="M125.9,626.7h-.7v-8.2h.7v8.2Z"/>
          <path class="st0" d="M127.4,623.9c0-1.9,1-3,2.4-3s1.6.5,1.9,1.2v-3.5h.7v8.2h-.7v-1c-.3.7-.9,1.2-1.9,1.2-1.4,0-2.4-1.1-2.4-3ZM129.9,621.5c-1.1,0-1.8.8-1.8,2.4s.6,2.4,1.8,2.4,1.8-.8,1.8-2.4-.7-2.4-1.8-2.4Z"/>
          <path class="st0" d="M138.9,625.3c-.3.6-1,1.5-2.5,1.5s-2.6-1.1-2.6-3,1-3,2.6-3,2.5,1.3,2.5,3h0c0,0-4.3,0-4.3,0h0c0,1.6.9,2.3,1.9,2.3s1.7-.7,1.9-1.3l.5.3ZM134.6,623.4h3.6c0-.9-.6-1.9-1.7-1.9s-1.7.7-1.8,1.9Z"/>
          <path class="st0" d="M143.2,621.6c-.1,0-.3,0-.4,0-1,0-1.7.8-1.7,1.9v3.2h-.7v-5.7h.7v1.1h0c.2-.7.9-1.3,1.7-1.3s.3,0,.4,0v.7h0Z"/>
          <path class="st0" d="M147.6,622.3c-.3-.4-.8-.7-1.5-.7s-1.3.3-1.3.9.4.8,1.1,1l.8.2c1,.2,1.7.6,1.7,1.6s-.9,1.7-2.2,1.7-2-.6-2.4-1.2l.6-.4c.4.6,1,1,1.8,1s1.4-.4,1.4-1.1-.5-.8-1.2-1l-.8-.2c-1-.2-1.6-.6-1.6-1.6s.9-1.6,2-1.6,1.6.4,2.1.9l-.5.5Z"/>
          <path class="st0" d="M150.6,625.4v1.4h-1v-1.4h1Z"/>
        </g>
      </g>
      <g id="Glance_2_lines">
        <g id="Glance">
          <g id="Glance1" data-name="Glance">
            <g id="_Jobs_in_advanced_economies_are_increasingly_for_high-skill_workers.">
              <g>
                <path class="st0" d="M6.6,12.9v6.9h-2.8V4.2h2.8v6.3h7v-6.3h2.8v15.6h-2.8v-6.9h-7Z"/>
                <path class="st0" d="M22.3,6.8h-2.6v-2.7h2.6v2.7ZM22.3,19.8h-2.6v-10.9h2.6v10.9Z"/>
                <path class="st0" d="M27.6,20.3c.1,1,.6,2,2.5,2s2.7-.8,2.7-2.9v-1h0c-.4.5-1.3,1.4-3.2,1.4-3,0-4.8-2.2-4.8-5.5s1.8-5.7,4.8-5.7,2.7.7,3.3,1.4v-1.2h2.6v10.3c0,1.2,0,1.9-.3,2.6-.7,1.8-2.4,2.6-5.1,2.6s-4.9-1.5-5-3.8l2.7-.2ZM30.1,10.9c-1.8,0-2.8,1.2-2.8,3.4s1,3.4,2.8,3.4,2.8-1.3,2.8-3.4-1-3.4-2.8-3.4Z"/>
                <path class="st0" d="M48.3,19.8h-2.6v-5.5c0-.8,0-1.5-.2-2.1-.2-.8-.8-1.3-1.9-1.3-1.6,0-2.4,1.3-2.4,3v5.8h-2.6V4.2h2.6v6.1c.5-1,1.7-1.7,3.4-1.7s2.3.4,3,1.4c.5.7.7,1.5.7,3.7v6.2h0Z"/>
                <path class="st0" d="M61.2,17.3c-.5.8-2,2.8-5.2,2.8s-5.5-2.3-5.5-5.8,2.3-5.6,5.4-5.6,5.2,2.4,5.2,5.8,0,.5,0,.7h-8c.2,1.5,1.1,2.8,3,2.8s2.9-1.3,3.2-1.9l1.8,1.4ZM53.2,13.1h5.3c0-1.4-1.1-2.4-2.6-2.4s-2.7,1.1-2.8,2.4Z"/>
                <path class="st0" d="M66.2,8.9v1.6c.2-.6,1.1-1.9,3.2-1.9s.2,0,.4,0v2.7c-.3,0-.5,0-.7,0-1.4,0-2.2.5-2.6,1.5-.2.6-.3,1.2-.3,2.2v4.9h-2.6v-10.9h2.6Z"/>
                <path class="st0" d="M83.2,19.8l-2.3-8.3c-.5-1.6-.9-3.5-1.2-5h0c0,.7.1,3.6.1,6.6v6.8h-2.7V4.2h4.1l2.5,8.6c.4,1.5.8,3,.9,3.7h0c.1-.6.6-2.4,1-3.7l2.3-8.6h4.1v15.6h-2.7v-6.6c0-2.2.1-5.5.2-6.9h0c-.1.7-1,4.3-1.4,5.7l-2.2,7.8h-2.8Z"/>
                <path class="st0" d="M102.7,12.8c-.4-1.2-1.2-2-2.6-2s-2.9,1.3-2.9,3.5,1.1,3.5,2.9,3.5,2.2-.9,2.6-1.9l2.1,1.1c-.5,1.2-2,3-4.8,3s-5.4-2-5.4-5.7,2.4-5.8,5.4-5.8,4.1,1.4,4.8,3.1l-2.2,1.2Z"/>
                <path class="st0" d="M120.7,19.8h-3.5l-5.1-7.2-2.1,2.1v5.1h-2.8V4.2h2.8v7.2l6.8-7.2h3.7l-6.4,6.5,6.5,9.2Z"/>
                <path class="st0" d="M124.8,6.8h-2.6v-2.7h2.6v2.7ZM124.8,19.8h-2.6v-10.9h2.6v10.9Z"/>
                <path class="st0" d="M137.7,19.8h-2.6v-5.5c0-.8,0-1.5-.2-2.1-.2-.8-.8-1.3-1.9-1.3-1.6,0-2.4,1.3-2.4,3v5.8h-2.6v-10.9h2.6v1.4c.5-1,1.7-1.7,3.4-1.7s2.3.4,3,1.4c.5.7.7,1.5.7,3.7v6.2h0Z"/>
                <path class="st0" d="M147.7,12c-.8-.7-1.8-1.2-3.1-1.2s-1.8.4-1.8,1.1.8.9,2.3,1.3l1.3.3c1.7.4,3.1,1,3.1,3s-2.3,3.7-4.8,3.7-4.4-1.3-5.1-2.2l1.8-1.6c.6.8,1.7,1.6,3.4,1.6s2.1-.5,2.1-1.2-.6-.9-1.7-1.1l-1.6-.3c-1.9-.4-3.4-1.2-3.4-3.2s2.3-3.4,4.4-3.4,3.9.9,4.6,1.7l-1.5,1.6Z"/>
                <path class="st0" d="M161.7,17.3c-.5.8-2,2.8-5.2,2.8s-5.4-2.3-5.4-5.8,2.3-5.6,5.4-5.6,5.2,2.4,5.2,5.8,0,.5,0,.7h-8c.2,1.5,1.1,2.8,3,2.8s2.9-1.3,3.2-1.9l1.8,1.4ZM153.7,13.1h5.3c0-1.4-1.1-2.4-2.6-2.4s-2.7,1.1-2.8,2.4Z"/>
                <path class="st0" d="M172.6,8.9l-3.7,12.3c-.4,1.2-.7,1.9-1.1,2.4-.6.6-1.3.9-2.6.9s-1.1,0-1.4-.1v-2.1c.3,0,.6.1.9.1,1.1,0,1.5-.5,1.7-1.4l.2-.7-3.9-11.3h2.8l1.8,5.9c.3,1,.6,2.3.6,2.3h0s.3-1.2.6-2.3l1.6-5.9h2.6Z"/>
                <path class="st0" d="M179.9,19.8V4.2h4.4c2.5,0,4.1,0,5.7,1.1,1.7,1.2,2.9,3.6,2.9,6.7s-.8,4.9-2.3,6.2c-1.7,1.6-3.5,1.6-6.4,1.6,0,0-4.3,0-4.3,0ZM182.7,17.3h1.8c1.7,0,3.1,0,4-.9.7-.8,1.4-2.4,1.4-4.3s-.6-3.5-1.6-4.4c-.9-.8-2.1-.9-4.1-.9h-1.5v10.6h0Z"/>
                <path class="st0" d="M205.3,17.3c-.5.8-2,2.8-5.2,2.8s-5.4-2.3-5.4-5.8,2.3-5.6,5.4-5.6,5.2,2.4,5.2,5.8,0,.5,0,.7h-8c.2,1.5,1.1,2.8,3,2.8s2.9-1.3,3.2-1.9l1.8,1.4ZM197.3,13.1h5.3c0-1.4-1.1-2.4-2.6-2.4s-2.7,1.1-2.8,2.4Z"/>
                <path class="st0" d="M214.6,12c-.8-.7-1.8-1.2-3.1-1.2s-1.8.4-1.8,1.1.8.9,2.3,1.3l1.3.3c1.7.4,3.1,1,3.1,3s-2.3,3.7-4.8,3.7-4.4-1.3-5.1-2.2l1.8-1.6c.6.8,1.7,1.6,3.4,1.6s2.1-.5,2.1-1.2-.6-.9-1.7-1.1l-1.6-.3c-1.9-.4-3.4-1.2-3.4-3.2s2.3-3.4,4.4-3.4,3.9.9,4.6,1.7l-1.5,1.6Z"/>
                <path class="st0" d="M221.4,6.8h-2.6v-2.7h2.6v2.7ZM221.4,19.8h-2.6v-10.9h2.6v10.9Z"/>
                <path class="st0" d="M226.8,20.3c.1,1,.6,2,2.5,2s2.7-.8,2.7-2.9v-1h0c-.4.5-1.3,1.4-3.2,1.4-3,0-4.8-2.2-4.8-5.5s1.8-5.7,4.8-5.7,2.7.7,3.3,1.4v-1.2h2.6v10.3c0,1.2,0,1.9-.3,2.6-.7,1.8-2.4,2.6-5.1,2.6s-4.9-1.5-5-3.8l2.7-.2ZM229.3,10.9c-1.8,0-2.8,1.2-2.8,3.4s1,3.4,2.8,3.4,2.8-1.3,2.8-3.4-1-3.4-2.8-3.4Z"/>
                <path class="st0" d="M247.4,19.8h-2.6v-5.5c0-.8,0-1.5-.2-2.1-.2-.8-.8-1.3-1.9-1.3-1.6,0-2.4,1.3-2.4,3v5.8h-2.6v-10.9h2.6v1.4c.5-1,1.7-1.7,3.4-1.7s2.3.4,3,1.4c.5.7.7,1.5.7,3.7v6.2h0Z"/>
                <path class="st0" d="M258.5,19.8h-2.8V4.2h2.8v15.6Z"/>
                <path class="st0" d="M271.6,19.8h-2.6v-5.5c0-.8,0-1.5-.2-2.1-.2-.8-.8-1.3-1.9-1.3-1.6,0-2.4,1.3-2.4,3v5.8h-2.6v-10.9h2.6v1.4c.5-1,1.7-1.7,3.4-1.7s2.3.4,3,1.4c.5.7.7,1.5.7,3.7v6.2h0Z"/>
                <path class="st0" d="M273.9,14.4c0-3.4,1.9-5.8,4.9-5.8s2.6.7,3.2,1.4v-5.9h2.6v15.6h-2.6v-1.1c-.7.9-1.7,1.4-3.2,1.4-2.9,0-4.9-2.4-4.9-5.7ZM279.3,10.9c-1.7,0-2.8,1.3-2.8,3.5s1.1,3.5,2.8,3.5,2.8-1.4,2.8-3.5-1.1-3.5-2.8-3.5Z"/>
                <path class="st0" d="M297.6,17.3c-.5.8-2,2.8-5.2,2.8s-5.4-2.3-5.4-5.8,2.3-5.6,5.4-5.6,5.2,2.4,5.2,5.8,0,.5,0,.7h-8c.2,1.5,1.1,2.8,3,2.8s2.9-1.3,3.2-1.9l1.8,1.4ZM289.6,13.1h5.3c0-1.4-1.1-2.4-2.6-2.4s-2.7,1.1-2.8,2.4Z"/>
                <path class="st0" d="M308.9,8.9l-3.4,5.2,3.8,5.8h-3l-2.4-3.7-2.3,3.7h-3l3.8-5.8-3.4-5.2h3.1l2,3.2,1.9-3.2s3,0,3,0Z"/>
                <path class="st0" d="M323,12c-.8-.7-1.8-1.2-3.1-1.2s-1.8.4-1.8,1.1.8.9,2.3,1.3l1.3.3c1.7.4,3.1,1,3.1,3s-2.3,3.7-4.8,3.7-4.4-1.3-5.1-2.2l1.8-1.6c.6.8,1.7,1.6,3.4,1.6s2.1-.5,2.1-1.2-.6-.9-1.7-1.1l-1.6-.3c-1.9-.4-3.4-1.2-3.4-3.2s2.3-3.4,4.4-3.4,3.9.9,4.6,1.7l-1.5,1.6Z"/>
                <path class="st0" d="M334.4,12.8c-.4-1.2-1.2-2-2.6-2s-2.9,1.3-2.9,3.5,1.1,3.5,2.9,3.5,2.2-.9,2.6-1.9l2.1,1.1c-.5,1.2-2,3-4.8,3s-5.4-2-5.4-5.7,2.4-5.8,5.4-5.8,4.1,1.4,4.8,3.1l-2.2,1.2Z"/>
                <path class="st0" d="M343.5,8.6c3.3,0,5.5,2.3,5.5,5.8s-2.1,5.7-5.5,5.7-5.5-2.2-5.5-5.7c0-3.5,2.1-5.8,5.5-5.8ZM343.5,17.8c1.7,0,2.9-1.3,2.9-3.5s-1.1-3.5-2.9-3.5-2.9,1.3-2.9,3.5,1.2,3.5,2.9,3.5Z"/>
                <path class="st0" d="M353.9,8.9v1.6c.2-.6,1.1-1.9,3.2-1.9s.2,0,.4,0v2.7c-.3,0-.5,0-.7,0-1.4,0-2.2.5-2.6,1.5-.2.6-.3,1.2-.3,2.2v4.9h-2.6v-10.9h2.6Z"/>
                <path class="st0" d="M369.4,17.3c-.5.8-2,2.8-5.2,2.8s-5.4-2.3-5.4-5.8,2.3-5.6,5.4-5.6,5.2,2.4,5.2,5.8,0,.5,0,.7h-8c.2,1.5,1.1,2.8,3,2.8s2.9-1.3,3.2-1.9l1.8,1.4ZM361.4,13.1h5.3c0-1.4-1.1-2.4-2.6-2.4s-2.7,1.1-2.8,2.4Z"/>
                <path class="st0" d="M378.8,12c-.8-.7-1.8-1.2-3.1-1.2s-1.8.4-1.8,1.1.8.9,2.3,1.3l1.3.3c1.7.4,3.1,1,3.1,3s-2.3,3.7-4.8,3.7-4.4-1.3-5.1-2.2l1.8-1.6c.6.8,1.7,1.6,3.4,1.6s2.1-.5,2.1-1.2-.6-.9-1.7-1.1l-1.6-.3c-1.9-.4-3.4-1.2-3.4-3.2s2.3-3.4,4.4-3.4,3.9.9,4.6,1.7l-1.5,1.6Z"/>
                <path class="st0" d="M395.2,12.8c-.4-1.2-1.2-2-2.6-2s-2.9,1.3-2.9,3.5,1.1,3.5,2.9,3.5,2.2-.9,2.6-1.9l2.1,1.1c-.5,1.2-2,3-4.8,3s-5.4-2-5.4-5.7,2.4-5.8,5.4-5.8,4.1,1.4,4.8,3.1l-2.2,1.2Z"/>
                <path class="st0" d="M404.3,8.6c3.3,0,5.5,2.3,5.5,5.8s-2.1,5.7-5.5,5.7-5.5-2.2-5.5-5.7c0-3.5,2.1-5.8,5.5-5.8ZM404.3,17.8c1.7,0,2.9-1.3,2.9-3.5s-1.1-3.5-2.9-3.5-2.9,1.3-2.9,3.5,1.2,3.5,2.9,3.5Z"/>
                <path class="st0" d="M414.8,8.9v1.6c.2-.6,1.1-1.9,3.2-1.9s.2,0,.4,0v2.7c-.3,0-.5,0-.7,0-1.4,0-2.2.5-2.6,1.5-.2.6-.3,1.2-.3,2.2v4.9h-2.6v-10.9h2.6Z"/>
                <path class="st0" d="M423,8.9v1.6c.2-.6,1.1-1.9,3.2-1.9s.2,0,.4,0v2.7c-.3,0-.5,0-.7,0-1.4,0-2.2.5-2.6,1.5-.2.6-.3,1.2-.3,2.2v4.9h-2.6v-10.9h2.6Z"/>
                <path class="st0" d="M438.5,17.3c-.5.8-2,2.8-5.1,2.8s-5.5-2.3-5.5-5.8,2.3-5.6,5.4-5.6,5.2,2.4,5.2,5.8,0,.5,0,.7h-8c.2,1.5,1.1,2.8,3,2.8s2.9-1.3,3.2-1.9l1.8,1.4ZM430.5,13.1h5.3c0-1.4-1.1-2.4-2.6-2.4s-2.7,1.1-2.8,2.4Z"/>
                <path class="st0" d="M443.5,19.8h-2.6V4.2h2.6v15.6Z"/>
                <path class="st0" d="M455.4,17.4c0,.6.1.9.6.9h.2v1.6c-.3,0-.6.1-1.3.1s-1.6-.3-1.8-1.1c-.5.5-1.4,1.2-3.3,1.2s-3.9-1.1-3.9-3.3,2-3.1,5.3-3.7h.8c.6-.3.9-.4.9-.9h0c0-1-.6-1.5-2-1.5s-2.2.6-2.2,1.9h-2.5c0-2.8,2.1-3.9,4.8-3.9s4.4.9,4.4,3.3v5.4h0ZM452.9,15.9v-1.4c-.3.1-.5.2-.9.3l-1.5.3c-1.3.3-1.9.6-1.9,1.5s.6,1.4,1.9,1.4c1.4,0,2.4-.7,2.4-2.2Z"/>
                <path class="st0" d="M464.8,19.9c-.5.1-1.2.2-2,.2s-2.2-.2-2.8-.9c-.4-.5-.5-1.1-.5-2.2v-6h-2.3v-2h2.3v-3.8l2.6-.6v4.4h2.6v2h-2.6v5.6c0,.6,0,.9.3,1.1.2.2.6.3,1.1.3s.9,0,1.1,0v2.1h0Z"/>
                <path class="st0" d="M476.9,17.3c-.5.8-2,2.8-5.1,2.8s-5.5-2.3-5.5-5.8,2.3-5.6,5.4-5.6,5.2,2.4,5.2,5.8,0,.5,0,.7h-8c.2,1.5,1.1,2.8,3,2.8s2.9-1.3,3.2-1.9l1.8,1.4ZM468.9,13.1h5.3c0-1.4-1.1-2.4-2.6-2.4s-2.7,1.1-2.8,2.4Z"/>
                <path class="st0" d="M478.6,14.4c0-3.4,1.9-5.8,4.9-5.8s2.6.7,3.2,1.4v-5.9h2.6v15.6h-2.6v-1.1c-.7.9-1.7,1.4-3.2,1.4-2.9,0-4.9-2.4-4.9-5.7ZM484,10.9c-1.7,0-2.8,1.3-2.8,3.5s1.1,3.5,2.8,3.5,2.8-1.4,2.8-3.5c0-2.1-1.1-3.5-2.8-3.5Z"/>
                <path class="st0" d="M505,15.6c-.3-1.1-.6-2.5-.8-3.7h0c-.2,1.1-.6,2.6-.9,3.7l-1.2,4.1h-2.6l-3.1-10.9h2.7l1.3,4.8c.3,1.1.5,2,.7,3.1h0c.2-1.1.4-1.9.7-3.1l1.3-4.8h2.3l1.3,4.8c.4,1.4.5,2,.7,3.1h0c.2-1.1.4-1.7.8-3.1l1.3-4.8h2.6l-3.3,10.9h-2.6l-1.1-4.2Z"/>
                <path class="st0" d="M516.5,6.8h-2.6v-2.7h2.6v2.7ZM516.5,19.8h-2.6v-10.9h2.6v10.9Z"/>
                <path class="st0" d="M526,19.9c-.5.1-1.2.2-2,.2s-2.2-.2-2.8-.9c-.4-.5-.5-1.1-.5-2.2v-6h-2.3v-2h2.3v-3.8l2.6-.6v4.4h2.6v2h-2.6v5.6c0,.6,0,.9.3,1.1.2.2.6.3,1.1.3s.9,0,1.1,0v2.1h0Z"/>
                <path class="st0" d="M538,19.8h-2.6v-5.5c0-.8,0-1.5-.2-2.1-.2-.8-.8-1.3-1.9-1.3-1.6,0-2.4,1.3-2.4,3v5.8h-2.6V4.2h2.6v6.1c.5-1,1.7-1.7,3.4-1.7s2.3.4,3,1.4c.5.7.7,1.5.7,3.7v6.2h0Z"/>
                <path class="st0" d="M555.8,19.8h-2.6v-5.5c0-.8,0-1.5-.2-2.1-.2-.8-.8-1.3-1.9-1.3-1.6,0-2.4,1.3-2.4,3v5.8h-2.6V4.2h2.6v6.1c.5-1,1.7-1.7,3.4-1.7s2.3.4,3,1.4c.5.7.7,1.5.7,3.7v6.2h0Z"/>
                <path class="st0" d="M561.4,6.8h-2.6v-2.7h2.6v2.7ZM561.4,19.8h-2.6v-10.9h2.6v10.9Z"/>
                <path class="st0" d="M566.8,20.3c.1,1,.6,2,2.5,2s2.7-.8,2.7-2.9v-1h0c-.4.5-1.3,1.4-3.2,1.4-3,0-4.8-2.2-4.8-5.5s1.8-5.7,4.8-5.7,2.7.7,3.3,1.4v-1.2h2.6v10.3c0,1.2,0,1.9-.3,2.6-.7,1.8-2.4,2.6-5.1,2.6s-4.9-1.5-5-3.8l2.7-.2ZM569.3,10.9c-1.8,0-2.8,1.2-2.8,3.4s1,3.4,2.8,3.4,2.8-1.3,2.8-3.4c0-2.1-1-3.4-2.8-3.4Z"/>
                <path class="st0" d="M587.5,19.8h-2.6v-5.5c0-.8,0-1.5-.2-2.1-.2-.8-.8-1.3-1.9-1.3-1.6,0-2.4,1.3-2.4,3v5.8h-2.6V4.2h2.6v6.1c.5-1,1.7-1.7,3.4-1.7s2.3.4,3,1.4c.5.7.7,1.5.7,3.7v6.2h0Z"/>
                <path class="st0" d="M600.3,17.3c-.5.8-2,2.8-5.2,2.8s-5.5-2.3-5.5-5.8,2.3-5.6,5.4-5.6,5.2,2.4,5.2,5.8,0,.5,0,.7h-8c.2,1.5,1.1,2.8,3,2.8s2.9-1.3,3.2-1.9l1.8,1.4ZM592.3,13.1h5.3c0-1.4-1.1-2.4-2.6-2.4s-2.7,1.1-2.8,2.4Z"/>
                <path class="st0" d="M605.3,8.9v1.6c.2-.6,1.1-1.9,3.2-1.9s.2,0,.4,0v2.7c-.3,0-.5,0-.7,0-1.4,0-2.2.5-2.6,1.5-.2.6-.3,1.2-.3,2.2v4.9h-2.6v-10.9h2.6Z"/>
                <path class="st0" d="M618.6,8.9v1.6c.2-.6,1.1-1.9,3.2-1.9s.2,0,.4,0v2.7c-.3,0-.5,0-.7,0-1.4,0-2.2.5-2.6,1.5-.2.6-.3,1.2-.3,2.2v4.9h-2.6v-10.9h2.6Z"/>
                <path class="st0" d="M634.1,17.3c-.5.8-2,2.8-5.2,2.8s-5.5-2.3-5.5-5.8,2.3-5.6,5.4-5.6,5.2,2.4,5.2,5.8,0,.5,0,.7h-8c.2,1.5,1.1,2.8,3,2.8s2.9-1.3,3.2-1.9l1.8,1.4ZM626.1,13.1h5.3c0-1.4-1.1-2.4-2.6-2.4s-2.7,1.1-2.8,2.4Z"/>
                <path class="st0" d="M645.2,8.9l-3.6,10.9h-2.7l-3.6-10.9h2.7l1.7,5.7c.3,1.1.6,2.2.6,2.2h0s.2-1.1.6-2.3l1.6-5.6h2.7Z"/>
                <path class="st0" d="M656.9,17.3c-.5.8-2,2.8-5.2,2.8s-5.5-2.3-5.5-5.8,2.3-5.6,5.4-5.6,5.2,2.4,5.2,5.8,0,.5,0,.7h-8c.2,1.5,1.1,2.8,3,2.8s2.9-1.3,3.2-1.9l1.8,1.4ZM648.9,13.1h5.3c0-1.4-1.1-2.4-2.6-2.4s-2.7,1.1-2.8,2.4Z"/>
                <path class="st0" d="M669.1,19.8h-2.6v-5.5c0-.8,0-1.5-.2-2.1-.2-.8-.8-1.3-1.9-1.3-1.6,0-2.4,1.3-2.4,3v5.8h-2.6v-10.9h2.6v1.4c.5-1,1.7-1.7,3.4-1.7s2.3.4,3,1.4c.5.7.7,1.5.7,3.7v6.2h0Z"/>
                <path class="st0" d="M671.9,8.9h2.6v6.1c0,1.7.4,2.8,2,2.8s2.3-1.3,2.3-3v-5.9h2.6v10.9h-2.6v-1.4c-.5.9-1.7,1.7-3.3,1.7s-3.6-.6-3.6-4.3v-7h0Z"/>
                <path class="st0" d="M694.4,17.3c-.5.8-2,2.8-5.2,2.8s-5.5-2.3-5.5-5.8,2.3-5.6,5.4-5.6,5.2,2.4,5.2,5.8,0,.5,0,.7h-8c.2,1.5,1.1,2.8,3,2.8s2.9-1.3,3.2-1.9l1.8,1.4ZM686.4,13.1h5.3c0-1.4-1.1-2.4-2.6-2.4s-2.7,1.1-2.8,2.4Z"/>
                <path class="st0" d="M704.1,20.3c.1,1,.6,2,2.5,2s2.7-.8,2.7-2.9v-1h0c-.4.5-1.3,1.4-3.2,1.4-3,0-4.8-2.2-4.8-5.5s1.8-5.7,4.8-5.7,2.7.7,3.3,1.4v-1.2h2.6v10.3c0,1.2,0,1.9-.3,2.6-.7,1.8-2.4,2.6-5.1,2.6s-4.9-1.5-5-3.8l2.7-.2ZM706.6,10.9c-1.8,0-2.8,1.2-2.8,3.4s1,3.4,2.8,3.4,2.8-1.3,2.8-3.4-1-3.4-2.8-3.4Z"/>
                <path class="st0" d="M717.7,8.9v1.6c.2-.6,1.1-1.9,3.2-1.9s.2,0,.4,0v2.7c-.3,0-.5,0-.7,0-1.4,0-2.2.5-2.6,1.5-.2.6-.3,1.2-.3,2.2v4.9h-2.6v-10.9h2.6Z"/>
                <path class="st0" d="M728,8.6c3.3,0,5.5,2.3,5.5,5.8s-2.1,5.7-5.5,5.7-5.5-2.2-5.5-5.7,2.1-5.8,5.5-5.8ZM728,17.8c1.7,0,2.9-1.3,2.9-3.5s-1.1-3.5-2.9-3.5-2.9,1.3-2.9,3.5,1.2,3.5,2.9,3.5Z"/>
                <path class="st0" d="M743.4,15.6c-.3-1.1-.6-2.5-.8-3.7h0c-.2,1.1-.6,2.6-.9,3.7l-1.2,4.1h-2.6l-3.2-10.9h2.7l1.3,4.8c.3,1.1.5,2,.7,3.1h0c.2-1.1.4-1.9.7-3.1l1.3-4.8h2.3l1.3,4.8c.4,1.4.5,2,.7,3.1h0c.2-1.1.4-1.7.8-3.1l1.3-4.8h2.6l-3.3,10.9h-2.6l-1.1-4.2Z"/>
                <path class="st0" d="M758.6,19.9c-.5.1-1.2.2-2,.2s-2.2-.2-2.8-.9c-.4-.5-.5-1.1-.5-2.2v-6h-2.3v-2h2.3v-3.8l2.6-.6v4.4h2.6v2h-2.6v5.6c0,.6,0,.9.3,1.1.2.2.6.3,1.1.3s.9,0,1.2,0v2.1Z"/>
                <path class="st0" d="M770.6,19.8h-2.6v-5.5c0-.8,0-1.5-.2-2.1-.2-.8-.8-1.3-1.9-1.3-1.6,0-2.4,1.3-2.4,3v5.8h-2.6V4.2h2.6v6.1c.5-1,1.7-1.7,3.4-1.7s2.3.4,3,1.4c.5.7.7,1.5.7,3.7v6.2h0Z"/>
                <path class="st0" d="M12.3,43.4c0,.6.1.9.6.9h.2v1.6c-.3,0-.6.1-1.3.1s-1.6-.3-1.8-1.1c-.5.5-1.4,1.2-3.3,1.2s-3.9-1.1-3.9-3.3,2-3.2,5.3-3.7h.8c.6-.3.9-.4.9-.9h0c0-1-.6-1.5-2-1.5s-2.2.6-2.2,1.9h-2.5c0-2.8,2.1-3.9,4.8-3.9s4.4.9,4.4,3.3v5.4h0ZM9.8,41.9v-1.4c-.3.1-.5.2-.9.3l-1.5.3c-1.3.3-1.9.6-1.9,1.5s.6,1.4,1.9,1.4c1.4,0,2.4-.7,2.4-2.2Z"/>
                <path class="st0" d="M25.2,45.8h-2.6v-5.5c0-.8,0-1.5-.2-2.1-.2-.8-.8-1.3-1.9-1.3-1.6,0-2.4,1.3-2.4,3v5.8h-2.6v-10.9h2.6v1.4c.5-1,1.7-1.7,3.4-1.7s2.3.4,3,1.4c.5.7.7,1.5.7,3.7v6.2h0Z"/>
                <path class="st0" d="M27.5,40.4c0-3.4,1.9-5.8,4.9-5.8s2.6.7,3.2,1.4v-5.9h2.6v15.6h-2.6v-1.1c-.7.9-1.7,1.4-3.2,1.4-2.9,0-4.9-2.4-4.9-5.7ZM32.9,36.9c-1.7,0-2.8,1.3-2.8,3.5s1.1,3.5,2.8,3.5,2.8-1.4,2.8-3.5c0-2.1-1.1-3.5-2.8-3.5Z"/>
                <path class="st0" d="M44.1,42.8v2.3c0,.4,0,.9,0,1.3-.2,1.7-.8,2.7-2.9,2.8v-1.5c.9,0,1.3-.4,1.3-1.6v-.3h-1.3v-3h3Z"/>
                <path class="st0" d="M58.1,36.9h-2.6v8.9h-2.6v-8.9h-1.9v-2h1.9v-1.4c0-1,.1-1.5.3-2,.5-1.1,1.5-1.5,3.2-1.5s1.3,0,1.7.1v2.1c-.3,0-.5,0-.9,0-.8,0-1.2,0-1.4.4-.2.2-.2.6-.2,1.2v1.2h2.6s0,2,0,2Z"/>
                <path class="st0" d="M64.7,34.6c3.3,0,5.5,2.3,5.5,5.8s-2.1,5.7-5.5,5.7-5.5-2.2-5.5-5.7c0-3.5,2.1-5.8,5.5-5.8ZM64.7,43.8c1.7,0,2.9-1.3,2.9-3.5s-1.1-3.5-2.9-3.5-2.9,1.3-2.9,3.5,1.2,3.5,2.9,3.5Z"/>
                <path class="st0" d="M75.2,34.9v1.6c.2-.6,1.1-1.9,3.2-1.9s.2,0,.4,0v2.7c-.3,0-.5,0-.7,0-1.4,0-2.2.5-2.6,1.5-.2.6-.3,1.2-.3,2.2v4.9h-2.6v-10.9h2.6Z"/>
                <path class="st0" d="M92.2,45.9c-.5.1-1.2.2-2,.2s-2.2-.2-2.8-.9c-.4-.5-.5-1.2-.5-2.2v-6h-2.3v-2h2.3v-3.8l2.6-.6v4.4h2.6v2h-2.6v5.6c0,.6,0,.9.3,1.1.2.2.6.3,1.1.3s.9,0,1.1,0v2.1Z"/>
                <path class="st0" d="M104.2,45.8h-2.6v-5.5c0-.8,0-1.5-.2-2.1-.2-.8-.8-1.3-1.9-1.3-1.6,0-2.4,1.3-2.4,3v5.8h-2.6v-15.6h2.6v6.1c.5-1,1.7-1.7,3.4-1.7s2.3.4,3,1.4c.5.7.7,1.5.7,3.7v6.2h0Z"/>
                <path class="st0" d="M117.1,43.3c-.5.8-2,2.8-5.2,2.8s-5.4-2.3-5.4-5.8,2.3-5.6,5.4-5.6,5.2,2.4,5.2,5.8,0,.5,0,.7h-8c.2,1.5,1.1,2.8,3,2.8s2.9-1.3,3.2-1.9l1.8,1.4ZM109.1,39.1h5.3c0-1.4-1.1-2.4-2.6-2.4s-2.7,1.1-2.8,2.4Z"/>
                <path class="st0" d="M130.8,45.9c-.5.1-1.2.2-2,.2s-2.2-.2-2.8-.9c-.4-.5-.5-1.2-.5-2.2v-6h-2.3v-2h2.3v-3.8l2.6-.6v4.4h2.6v2h-2.6v5.6c0,.6,0,.9.3,1.1.2.2.6.3,1.1.3s.9,0,1.1,0v2.1Z"/>
                <path class="st0" d="M137.8,34.6c3.3,0,5.5,2.3,5.5,5.8s-2.1,5.7-5.5,5.7-5.5-2.2-5.5-5.7c0-3.5,2.1-5.8,5.5-5.8ZM137.8,43.8c1.7,0,2.9-1.3,2.9-3.5s-1.1-3.5-2.9-3.5-2.9,1.3-2.9,3.5,1.2,3.5,2.9,3.5Z"/>
                <path class="st0" d="M148.3,44.7v5.5h-2.6v-15.3h2.6v1.2c.6-.8,1.8-1.5,3.2-1.5,3,0,4.9,2.3,4.9,5.8s-1.9,5.7-4.9,5.7-2.5-.6-3.2-1.4ZM151,43.8c1.7,0,2.8-1.3,2.8-3.5s-1.1-3.5-2.8-3.5-2.8,1.4-2.8,3.5,1.1,3.5,2.8,3.5Z"/>
                <path class="st0" d="M163.2,40.4c0-3.4,1.9-5.8,4.9-5.8s2.6.7,3.2,1.5v-1.2h2.6v15.3h-2.6v-5.5c-.7.9-1.7,1.4-3.2,1.4-2.9,0-4.9-2.4-4.9-5.7ZM168.6,36.9c-1.7,0-2.8,1.3-2.8,3.5s1.1,3.5,2.8,3.5,2.8-1.4,2.8-3.5-1.1-3.5-2.8-3.5Z"/>
                <path class="st0" d="M176.8,34.9h2.6v6.1c0,1.7.4,2.8,2,2.8s2.3-1.3,2.3-3v-5.9h2.6v10.9h-2.6v-1.4c-.5.9-1.7,1.7-3.3,1.7s-3.6-.6-3.6-4.3v-7h0Z"/>
                <path class="st0" d="M198.3,43.4c0,.6.1.9.6.9h.2v1.6c-.3,0-.6.1-1.3.1s-1.6-.3-1.8-1.1c-.5.5-1.4,1.2-3.3,1.2s-3.9-1.1-3.9-3.3,2-3.2,5.3-3.7h.8c.6-.3.9-.4.9-.9h0c0-1-.6-1.5-2-1.5s-2.2.6-2.2,1.9h-2.5c0-2.8,2.1-3.9,4.8-3.9s4.4.9,4.4,3.3v5.4h0ZM195.8,41.9v-1.4c-.3.1-.5.2-.9.3l-1.5.3c-1.3.3-1.9.6-1.9,1.5s.6,1.4,1.9,1.4c1.4,0,2.4-.7,2.4-2.2Z"/>
                <path class="st0" d="M204,34.9v1.6c.2-.6,1.1-1.9,3.2-1.9s.2,0,.4,0v2.7c-.3,0-.5,0-.7,0-1.4,0-2.2.5-2.6,1.5-.2.6-.3,1.2-.3,2.2v4.9h-2.6v-10.9h2.6Z"/>
                <path class="st0" d="M215.9,45.9c-.5.1-1.2.2-2,.2s-2.2-.2-2.8-.9c-.4-.5-.5-1.2-.5-2.2v-6h-2.3v-2h2.3v-3.8l2.6-.6v4.4h2.6v2h-2.6v5.6c0,.6,0,.9.3,1.1.2.2.6.3,1.1.3s.9,0,1.1,0v2.1Z"/>
                <path class="st0" d="M220.8,32.8h-2.6v-2.7h2.6v2.7ZM220.8,45.8h-2.6v-10.9h2.6v10.9Z"/>
                <path class="st0" d="M226.5,45.8h-2.6v-15.6h2.6v15.6Z"/>
                <path class="st0" d="M239.5,43.3c-.5.8-2,2.8-5.2,2.8s-5.4-2.3-5.4-5.8,2.3-5.6,5.4-5.6,5.2,2.4,5.2,5.8,0,.5,0,.7h-8c.2,1.5,1.1,2.8,3,2.8s2.9-1.3,3.2-1.9l1.8,1.4ZM231.5,39.1h5.3c0-1.4-1.1-2.4-2.6-2.4s-2.7,1.1-2.8,2.4Z"/>
                <path class="st0" d="M244.7,42.8v2.3c0,.4,0,.9,0,1.3-.2,1.7-.8,2.7-2.9,2.8v-1.5c.9,0,1.3-.4,1.3-1.6v-.3h-1.3v-3h3Z"/>
                <path class="st0" d="M262.5,45.8h-2.6v-5.5c0-.8,0-1.5-.2-2.1-.2-.8-.8-1.3-1.9-1.3-1.6,0-2.4,1.3-2.4,3v5.8h-2.6v-15.6h2.6v6.1c.5-1,1.7-1.7,3.4-1.7s2.3.4,3,1.4c.5.7.7,1.5.7,3.7v6.2h0Z"/>
                <path class="st0" d="M268.1,32.8h-2.6v-2.7h2.6v2.7ZM268.1,45.8h-2.6v-10.9h2.6v10.9Z"/>
                <path class="st0" d="M273.4,46.3c.1,1,.6,2,2.5,2s2.7-.8,2.7-2.9v-1h0c-.4.5-1.3,1.4-3.2,1.4-3,0-4.8-2.2-4.8-5.5s1.8-5.7,4.8-5.7,2.7.7,3.3,1.4v-1.2h2.6v10.3c0,1.2,0,1.9-.3,2.6-.7,1.8-2.4,2.6-5.1,2.6s-4.9-1.5-5-3.8l2.7-.2ZM275.9,36.9c-1.8,0-2.8,1.2-2.8,3.4s1,3.4,2.8,3.4,2.8-1.3,2.8-3.4c0-2.1-1-3.4-2.8-3.4Z"/>
                <path class="st0" d="M294.1,45.8h-2.6v-5.5c0-.8,0-1.5-.2-2.1-.2-.8-.8-1.3-1.9-1.3-1.6,0-2.4,1.3-2.4,3v5.8h-2.6v-15.6h2.6v6.1c.5-1,1.7-1.7,3.4-1.7s2.3.4,3,1.4c.5.7.7,1.5.7,3.7v6.2h0Z"/>
                <path class="st0" d="M306.9,43.3c-.5.8-2,2.8-5.2,2.8s-5.4-2.3-5.4-5.8,2.3-5.6,5.4-5.6,5.2,2.4,5.2,5.8,0,.5,0,.7h-8c.2,1.5,1.1,2.8,3,2.8s2.9-1.3,3.2-1.9l1.8,1.4ZM299,39.1h5.3c0-1.4-1.1-2.4-2.6-2.4s-2.7,1.1-2.8,2.4Z"/>
                <path class="st0" d="M312,34.9v1.6c.2-.6,1.1-1.9,3.2-1.9s.2,0,.4,0v2.7c-.3,0-.5,0-.7,0-1.4,0-2.2.5-2.6,1.5-.2.6-.3,1.2-.3,2.2v4.9h-2.6v-10.9h2.6Z"/>
                <path class="st0" d="M325.3,34.9v1.6c.2-.6,1.1-1.9,3.2-1.9s.2,0,.4,0v2.7c-.3,0-.5,0-.7,0-1.4,0-2.2.5-2.6,1.5-.2.6-.3,1.2-.3,2.2v4.9h-2.6v-10.9h2.6Z"/>
                <path class="st0" d="M340.7,43.3c-.5.8-2,2.8-5.2,2.8s-5.4-2.3-5.4-5.8,2.3-5.6,5.4-5.6,5.2,2.4,5.2,5.8,0,.5,0,.7h-8c.2,1.5,1.1,2.8,3,2.8s2.9-1.3,3.2-1.9l1.8,1.4ZM332.8,39.1h5.3c0-1.4-1.1-2.4-2.6-2.4s-2.7,1.1-2.8,2.4Z"/>
                <path class="st0" d="M349.5,45.9c-.5.1-1.2.2-2,.2s-2.2-.2-2.8-.9c-.4-.5-.5-1.2-.5-2.2v-6h-2.3v-2h2.3v-3.8l2.6-.6v4.4h2.6v2h-2.6v5.6c0,.6,0,.9.3,1.1.2.2.6.3,1.1.3s.9,0,1.1,0v2.1Z"/>
                <path class="st0" d="M351.6,34.9h2.6v6.1c0,1.7.4,2.8,2,2.8s2.3-1.3,2.3-3v-5.9h2.6v10.9h-2.6v-1.4c-.5.9-1.7,1.7-3.3,1.7s-3.6-.6-3.6-4.3v-7Z"/>
                <path class="st0" d="M366.9,34.9v1.6c.2-.6,1.1-1.9,3.2-1.9s.2,0,.4,0v2.7c-.3,0-.5,0-.7,0-1.4,0-2.2.5-2.6,1.5-.2.6-.3,1.2-.3,2.2v4.9h-2.6v-10.9h2.6Z"/>
                <path class="st0" d="M382.2,45.8h-2.6v-5.5c0-.8,0-1.5-.2-2.1-.2-.8-.8-1.3-1.9-1.3-1.6,0-2.4,1.3-2.4,3v5.8h-2.6v-10.9h2.6v1.4c.5-1,1.7-1.7,3.4-1.7s2.3.4,3,1.4c.5.7.7,1.5.7,3.7v6.2h0Z"/>
                <path class="st0" d="M392.2,38c-.8-.7-1.8-1.2-3.1-1.2s-1.8.4-1.8,1.1.8.9,2.3,1.3l1.3.3c1.7.4,3.1,1,3.1,3s-2.3,3.7-4.8,3.7-4.4-1.3-5.1-2.2l1.8-1.6c.6.8,1.7,1.6,3.4,1.6s2.1-.5,2.1-1.2-.6-.9-1.7-1.1l-1.6-.3c-1.9-.4-3.4-1.2-3.4-3.2s2.3-3.4,4.4-3.4,3.9.9,4.6,1.7l-1.5,1.6Z"/>
                <path class="st0" d="M407.7,45.9c-.5.1-1.2.2-2,.2s-2.2-.2-2.8-.9c-.4-.5-.5-1.2-.5-2.2v-6h-2.3v-2h2.3v-3.8l2.6-.6v4.4h2.6v2h-2.6v5.6c0,.6,0,.9.3,1.1.2.2.6.3,1.1.3s.9,0,1.1,0v2.1Z"/>
                <path class="st0" d="M414.7,34.6c3.3,0,5.5,2.3,5.5,5.8s-2.1,5.7-5.5,5.7-5.5-2.2-5.5-5.7c0-3.5,2.1-5.8,5.5-5.8ZM414.7,43.8c1.7,0,2.9-1.3,2.9-3.5s-1.1-3.5-2.9-3.5-2.9,1.3-2.9,3.5,1.2,3.5,2.9,3.5Z"/>
                <path class="st0" d="M434.6,38c-.8-.7-1.8-1.2-3.1-1.2s-1.8.4-1.8,1.1.8.9,2.3,1.3l1.3.3c1.7.4,3.1,1,3.1,3s-2.3,3.7-4.8,3.7-4.4-1.3-5.1-2.2l1.8-1.6c.6.8,1.7,1.6,3.4,1.6s2.1-.5,2.1-1.2-.6-.9-1.7-1.1l-1.6-.3c-1.9-.4-3.4-1.2-3.4-3.2s2.3-3.4,4.4-3.4,3.9.9,4.6,1.7l-1.5,1.6Z"/>
                <path class="st0" d="M448.5,45.8h-2.6v-5.5c0-.8,0-1.5-.2-2.1-.2-.8-.8-1.3-1.9-1.3-1.6,0-2.4,1.3-2.4,3v5.8h-2.6v-15.6h2.6v6.1c.5-1,1.7-1.7,3.4-1.7s2.3.4,3,1.4c.5.7.7,1.5.7,3.7v6.2h0Z"/>
                <path class="st0" d="M460.3,43.4c0,.6.1.9.6.9h.2v1.6c-.3,0-.6.1-1.3.1s-1.6-.3-1.8-1.1c-.5.5-1.4,1.2-3.3,1.2s-3.9-1.1-3.9-3.3,2-3.2,5.3-3.7h.8c.6-.3.9-.4.9-.9h0c0-1-.6-1.5-2-1.5s-2.2.6-2.2,1.9h-2.5c0-2.8,2.1-3.9,4.8-3.9s4.4.9,4.4,3.3v5.4h0ZM457.8,41.9v-1.4c-.3.1-.5.2-.9.3l-1.5.3c-1.3.3-1.9.6-1.9,1.5s.6,1.4,1.9,1.4c1.4,0,2.4-.7,2.4-2.2Z"/>
                <path class="st0" d="M466,34.9v1.6c.2-.6,1.1-1.9,3.2-1.9s.2,0,.4,0v2.7c-.3,0-.5,0-.7,0-1.4,0-2.2.5-2.6,1.5-.2.6-.3,1.2-.3,2.2v4.9h-2.6v-10.9h2.6Z"/>
                <path class="st0" d="M481.4,43.3c-.5.8-2,2.8-5.2,2.8s-5.5-2.3-5.5-5.8,2.3-5.6,5.4-5.6,5.2,2.4,5.2,5.8,0,.5,0,.7h-8c.2,1.5,1.1,2.8,3,2.8s2.9-1.3,3.2-1.9l1.8,1.4ZM473.5,39.1h5.3c0-1.4-1.1-2.4-2.6-2.4s-2.7,1.1-2.8,2.4Z"/>
                <path class="st0" d="M493.6,45.8h-2.6v-5.5c0-.8,0-1.5-.2-2.1-.2-.8-.8-1.3-1.9-1.3-1.6,0-2.4,1.3-2.4,3v5.8h-2.6v-15.6h2.6v6.1c.5-1,1.7-1.7,3.4-1.7s2.3.4,3,1.4c.5.7.7,1.5.7,3.7v6.2h0Z"/>
                <path class="st0" d="M501.4,34.6c3.3,0,5.5,2.3,5.5,5.8s-2.1,5.7-5.5,5.7-5.5-2.2-5.5-5.7c0-3.5,2.1-5.8,5.5-5.8ZM501.4,43.8c1.7,0,2.9-1.3,2.9-3.5s-1.1-3.5-2.9-3.5-2.9,1.3-2.9,3.5,1.2,3.5,2.9,3.5Z"/>
                <path class="st0" d="M511.9,45.8h-2.6v-15.6h2.6v15.6Z"/>
                <path class="st0" d="M514.3,40.4c0-3.4,1.9-5.8,4.9-5.8s2.6.7,3.2,1.4v-5.9h2.6v15.6h-2.6v-1.1c-.7.9-1.7,1.4-3.2,1.4-2.9,0-4.9-2.4-4.9-5.7ZM519.7,36.9c-1.7,0-2.8,1.3-2.8,3.5s1.1,3.5,2.8,3.5,2.8-1.4,2.8-3.5-1.1-3.5-2.8-3.5Z"/>
                <path class="st0" d="M537.9,43.3c-.5.8-2,2.8-5.2,2.8s-5.5-2.3-5.5-5.8,2.3-5.6,5.4-5.6,5.2,2.4,5.2,5.8,0,.5,0,.7h-8c.2,1.5,1.1,2.8,3,2.8s2.9-1.3,3.2-1.9l1.8,1.4ZM530,39.1h5.3c0-1.4-1.1-2.4-2.6-2.4s-2.7,1.1-2.8,2.4Z"/>
                <path class="st0" d="M543,34.9v1.6c.2-.6,1.1-1.9,3.2-1.9s.2,0,.4,0v2.7c-.3,0-.5,0-.7,0-1.4,0-2.2.5-2.6,1.5-.2.6-.3,1.2-.3,2.2v4.9h-2.6v-10.9h2.6Z"/>
                <path class="st0" d="M555.5,38c-.8-.7-1.8-1.2-3.1-1.2s-1.8.4-1.8,1.1.8.9,2.3,1.3l1.3.3c1.7.4,3.2,1,3.2,3s-2.3,3.7-4.8,3.7-4.4-1.3-5.1-2.2l1.8-1.6c.6.8,1.7,1.6,3.4,1.6s2.1-.5,2.1-1.2-.6-.9-1.7-1.1l-1.6-.3c-1.9-.4-3.4-1.2-3.4-3.2s2.3-3.4,4.4-3.4,3.9.9,4.6,1.7l-1.5,1.6Z"/>
                <path class="st0" d="M562.5,42.8v3h-3v-3h3Z"/>
              </g>
            </g>
          </g>
        </g>
      </g>
      <g>
        <path class="st0" d="M3.9,665.2c0-.3-.9-1.1-1.2-1.1h-.7v-.7h4.4l4.5,11.4h.1l4.8-11.4h3.9v.7h-.7c-.3,0-1.2.8-1.2,1.1v11.3c0,.3.9,1.1,1.2,1.1h.7v.7h-5.9v-.7h.7c.3,0,1.2-.8,1.2-1.1v-11l-5.5,13.2-5.5-13.4v11.2c0,.3.9,1.1,1.2,1.1h.7v.7H2v-.7h.7c.3,0,1.2-.8,1.2-1.1,0,0,0-11.3,0-11.3Z"/>
        <path class="st0" d="M26.1,672c.3-1.5,0-2.9-1.7-2.9s-2.9,1.6-2.9,3.9,1.4,4,3.6,4,2.4-.6,3.1-1.7h.6c-.6,2.1-2,3.5-4.4,3.5s-4.5-2.3-4.5-5.1,2.1-5.2,4.7-5.2,2.6.5,3.5,1.4l-1.4,2.2h-.6Z"/>
        <g>
          <path class="st0" d="M45.9,666.3c.7,0,1.3-.5,1.3-1.3s-.5-1.2-1.3-1.2-1.3.5-1.3,1.2c0,.8.6,1.3,1.3,1.3Z"/>
          <path class="st0" d="M59.8,677.7c-.3,0-1.1-.7-1.1-1v-5.5c0-1.7-1.2-2.8-2.7-2.8s-2.7,1-3.9,2.2l-.4-2h-3.1v.7h.6c.3,0,1.1.7,1.1,1v6.3c0,.3-.8,1-1.1,1h-1.2c-.3,0-1.1-.7-1.1-1v-8.1h-3.5v.7h.6c.3,0,1.1.7,1.1,1v6.3c0,.3-.8,1-1.1,1h-1.1c-.3,0-1.5-.9-1.8-1.3l-5.3-7,3.7-3.9c.2-.2,1.6-1.4,1.9-1.4h.7v-.7h-5.5v.7h.7c.3,0,1.1,1,.9,1.3l-5.4,6v-6.2c0-.3.9-1.1,1.2-1.1h.7v-.7h-5.9v.7h.7c.3,0,1.2.8,1.2,1.1v11.3c0,.3-.9,1.1-1.2,1.1h-.7v.7h5.9v-.7h-.7c-.3,0-1.2-.8-1.2-1.1v-4l1.5-1.7,5.2,7.6h14v-.7h-.6c-.3,0-1.1-.7-1.1-1v-5c0-.7,1.8-2,3.2-2s1.6.7,1.6,1.7v5.4c0,.3-.8,1-1.1,1h-.6v.7h5v-.7h-.5Z"/>
        </g>
        <path class="st0" d="M61.7,675c0,.9,1.3,2.9,3.5,2.9s1.9-.4,1.9-1.4-1-1.5-1.8-1.8c-.7-.3-1.2-.5-2-.9-1.2-.5-2.1-1.3-2.1-2.7s1.1-2.8,3-2.8,1.7.5,2.4.5.5,0,.5-.3h.5v3h-.6c0-.8-1.1-2.5-3-2.5s-1.7.5-1.7,1.3.6,1.2,1.6,1.6c.7.3,1.3.6,2.1.9,1.1.4,2.3,1.3,2.3,2.8s-1.3,3-3.1,3-2-.6-2.8-.6-.5.1-.7.3h-.5v-3.5h.6Z"/>
        <path class="st0" d="M68.9,673.6c0-2.9,2-5.2,4.5-5.2,2.2,0,3.5,1.5,3.6,3.5v.7s-6.5.5-6.5.5c0,2,1.4,3.9,3.6,3.9s2.5-.6,3.1-1.8h.6c-.6,2.1-1.9,3.5-4.3,3.5s-4.6-2.4-4.6-5.2ZM75.3,672c.2-1.4,0-2.8-2-2.8s-2.8,1.7-2.9,3.2l4.9-.4Z"/>
        <path class="st0" d="M78.7,670.5c-.1-.3-1-1.1-1.3-1.1h-.4v-.7h5.2v.7h-.6c-.3,0-.9.7-.9,1.1l2.3,5.3,2.2-5.2c0-.4-.6-1.1-.9-1.1h-.6v-.7h3.9v.7h-.5c-.2,0-.9.7-1.1,1.1l-3.3,7.5-2.5,5.4-.9-.4,2.6-5.4-3.3-7.2Z"/>
        <path class="st0" d="M31.2,686.3c0,1.2.8,2.2,2.1,2.7,2,2.1,4.3,4.3,6.4,6.2.6-1,.8-2,.8-3.2s-.9-2.2-2.4-2.3v-.7h5.4v.7h-.6c-.3,0-1.3,1.2-1.4,1.6,0,1.3-.4,2.9-1.4,4.3,1.1,1,2.2,1.8,3.1,2.5h.9v.7h-1.6c-1.5,0-2.5-.4-3.8-1.5-1.2,1.2-2.7,1.8-5,1.8s-4.8-1.8-4.8-4.5,1.1-3.6,2.4-4.6c-.7-.9-1.2-1.8-1.2-3.2,0-2.2,1.4-3.4,3.6-3.4s2.1.5,2.8.5.5,0,.7-.3h.6v3.6h-.6c0-1-1.5-3.1-3.5-3.1-1.6,0-2.6.8-2.6,2.2ZM30.6,693.6c0,2.2,2.3,4.2,4.5,4.2s2.4-.4,3.3-1c-2.2-1.9-4.7-4.3-6.5-6.4-.8.8-1.2,1.6-1.2,3.2Z"/>
        <path class="st0" d="M59.7,689c0-1.6-1.7-4.7-4.6-4.7s-4.2,1.5-4.4,4.9c-.1,1.3,0,2.5,0,3.8.2,2.6,2.1,4.8,5.2,4.8s3.9-1.1,4.9-3.1h.8c-1,2.7-3.1,4.3-6.1,4.3-4.3,0-7.2-3.6-7.2-7.9s2.5-7.8,6.8-7.8,2.6.7,3.8.7.7-.1.9-.4h.6v5.4h-.6Z"/>
        <path class="st0" d="M62.6,693.8c0-3.2,2.3-5.2,4.9-5.2s4.9,2,4.9,5.2-2.3,5.2-4.9,5.2-4.9-2-4.9-5.2ZM70.4,695.5c.1-1,.1-2.3,0-3.3-.2-1.6-1.1-2.6-2.9-2.6s-2.7,1.1-2.9,2.6c-.1,1-.1,2.4,0,3.3.2,1.5,1.1,2.6,2.9,2.6,1.9,0,2.7-1.1,2.9-2.6Z"/>
        <path class="st0" d="M88.3,697c0,.3.7,1,1,1h.5v.7h-4.9v-.7h.6c.3,0,1-.7,1-1v-5.5c0-1-.5-1.6-1.5-1.6s-2.9,1.2-2.9,1.9v5.2c0,.3.7,1,1,1h.6v.7h-5v-.7h.6c.3,0,1-.7,1-1v-5.5c0-1-.5-1.6-1.6-1.6s-2.9,1.3-2.9,2v5.1c0,.3.7,1,1,1h.6v.7h-5v-.7h.6c.3,0,1-.7,1-1v-6.3c0-.3-.7-1-1-1h-.6v-.7h3l.4,1.9c1.1-1.2,1.8-2.1,3.6-2.1s2.4.7,2.6,2.1c1.2-1.2,2-2.1,3.6-2.1s2.7,1,2.7,2.8v5.5h0Z"/>
        <path class="st0" d="M92.7,688.9l.3,2c.9-1.6,1.9-2.3,3.6-2.3,2.4,0,3.8,2,3.8,5s-1.7,5.3-4.1,5.3-2.6-.7-3.3-1.9v4.7c0,.3.8,1,1,1h.6v.7h-5.2v-.7h.6c.3,0,1-.7,1-1v-11c0-.3-.7-1-1-1h-.6v-.7h3.2ZM93,692.5v2.6c0,1.5,1.2,2.8,2.8,2.8s2.5-1.1,2.7-2.6c.1-.9.1-2,0-2.9-.2-1.6-1.1-2.6-2.5-2.6-1.7,0-2.6,1.1-3.1,2.7Z"/>
        <path class="st0" d="M121.7,698c-.3,0-1.1-.7-1.1-1v-5.5c0-1.7-1.2-2.8-2.7-2.8s-2.7,1-3.9,2.2l-.4-2h-3.1v.7h.6c.3,0,1.1.7,1.1,1v6.3c0,.3-.8,1-1.1,1h-1.2c-.3,0-1.1-.7-1.1-1v-5.4c0-1.9-1.6-2.9-3.7-2.9s-3.1.7-3.9,1.5l1.3,2h.7c-.7-1.7-.2-2.8,1.5-2.8s2.3.8,2.3,2.2v1.2s-2.6.5-2.6.5c-1.4.3-3.2,1-3.2,2.9s1.1,2.7,2.5,2.7,2.5-1.1,3.3-2.2l.2,2h8.3v-.7h-.6c-.3,0-1.1-.7-1.1-1v-5c0-.7,1.8-2,3.2-2s1.6.7,1.6,1.7v5.4c0,.3-.8,1-1.1,1h-.6v.7h5v-.7h-.5ZM107.1,695.9c-.4.7-1.5,1.7-2.4,1.7s-1.6-.7-1.6-1.6.4-1.6,1.6-2l2.3-.6s0,2.4,0,2.4Z"/>
        <path class="st0" d="M123,690.8c-.1-.3-1-1.1-1.3-1.1h-.4v-.7h5.2v.7h-.6c-.3,0-.9.7-.9,1.1l2.3,5.3,2.2-5.2c0-.4-.6-1.1-.9-1.1h-.6v-.7h3.9v.7h-.5c-.2,0-.9.7-1.1,1.1l-3.3,7.5-2.5,5.4-.9-.4,2.6-5.4-3.3-7.2Z"/>
      </g>
      <g>
        <rect class="st4" x="2" y="-59.6" width="512.5" height="49.9"/>
        <path class="st4" d="M6.6-55.1c2.4,0,3.9,1.8,3.9,4.6s-.3,2.1-.8,2.9l1,1-.8.8-1-.9c-.6.5-1.4.8-2.4.8-2.5,0-4-1.9-4-4.6,0-2.7,1.5-4.6,4-4.6ZM6.6-47c1.7,0,2.7-1.4,2.7-3.5s-1-3.6-2.7-3.6-2.7,1.4-2.7,3.6c0,2.1,1.1,3.5,2.7,3.5Z"/>
        <path class="st4" d="M18.8-49.4c.1.4.4,1.4.4,1.8h0c0-.4.3-1.2.4-1.8l1.3-5.5h1.2l-2.3,8.8h-1.3l-1.2-4.7c-.2-.6-.4-1.7-.5-2.2h0c-.1.5-.4,1.6-.6,2.3l-1.2,4.6h-1.4l-2.2-8.8h1.2l1.2,5.3.5,2.1h0c0-.4.3-1.2.5-2.1l1.3-5.2h1.1l1.4,5.6Z"/>
        <path class="st4" d="M23.7-49c0,1.4.8,2.1,1.9,2.1s1.7-.7,2-1.2l.8.6c-.4.7-1.3,1.6-2.8,1.6s-3-1.2-3-3.3,1.2-3.2,2.9-3.2,2.8,1.3,2.8,3.2v.2s-4.6,0-4.6,0ZM27.2-49.8c0-1-.6-1.8-1.7-1.8s-1.7.7-1.8,1.8h3.5Z"/>
        <path class="st4" d="M30.9-47v.9h-1.1v-8.8h1.1v3.6c.3-.6,1-1.1,1.9-1.1,1.6,0,2.7,1.2,2.7,3.3s-1.1,3.2-2.7,3.2c-.9,0-1.6-.5-1.9-1.1ZM32.6-46.9c1.1,0,1.8-.9,1.8-2.3s-.7-2.3-1.8-2.3-1.8.9-1.8,2.4c0,1.5.7,2.3,1.8,2.3Z"/>
        <path class="st4" d="M39.9-51.2c-.2-.4-.2-.8-.2-1.2,0-1.5,1.2-2.7,3-2.7s2.9,1.2,2.9,2.8c0,2.5-3.1,4.3-4.3,5.2h4.4v1h-6v-.9c.7-.5,1.7-1.2,2.9-2.3,1-.9,1.8-1.7,1.8-2.9s-.8-1.9-1.8-1.9-1.7.9-1.7,1.8.2,1,.3,1.2l-1.2-.2Z"/>
        <path class="st4" d="M50.2-46c-2.5,0-3.3-2.1-3.3-4.5s.9-4.6,3.3-4.6,3.3,2.1,3.3,4.6-.8,4.5-3.3,4.5ZM50.2-54.1c-1.5,0-2.1,1.7-2.1,3.6s.5,3.5,2.1,3.5,2.1-1.8,2.1-3.5-.6-3.6-2.1-3.6Z"/>
        <path class="st4" d="M55.1-51.2c-.2-.4-.2-.8-.2-1.2,0-1.5,1.2-2.7,3-2.7s2.9,1.2,2.9,2.8c0,2.5-3.1,4.3-4.3,5.2h4.4v1h-6v-.9c.7-.5,1.7-1.2,2.9-2.3,1-.9,1.8-1.7,1.8-2.9s-.8-1.9-1.8-1.9-1.7.9-1.7,1.8.2,1,.3,1.2l-1.2-.2Z"/>
        <path class="st4" d="M65.4-46c-2.5,0-3.3-2.1-3.3-4.5s.9-4.6,3.3-4.6,3.3,2.1,3.3,4.6-.8,4.5-3.3,4.5ZM65.4-54.1c-1.5,0-2.1,1.7-2.1,3.6s.5,3.5,2.1,3.5,2.1-1.8,2.1-3.5-.6-3.6-2.1-3.6Z"/>
        <path class="st4" d="M3.1-30.1v-8.8h3.4c.8,0,1.4,0,1.8.2.8.3,1.3,1,1.3,2s-.5,1.6-1.4,1.9c1,.3,1.6,1.1,1.6,2.2s-.5,1.7-1.2,2.1c-.4.2-.9.4-2.1.4,0,0-3.6,0-3.6,0ZM6.4-38h-2.2v2.8h2.2c1.4,0,2.1-.4,2.1-1.4s-.6-1.4-2.1-1.4ZM4.2-31.1h2.3c1.3,0,2.2-.3,2.2-1.5s-1-1.5-2.2-1.5h-2.3v3.1Z"/>
        <path class="st4" d="M11.4-36.3h1.1v3.4c0,1.5.4,2,1.4,2s1.5-.9,1.5-1.8v-3.6h1.1v6.2h-1.1v-.9c-.3.6-.9,1.1-1.9,1.1-1.5,0-2.1-1-2.1-2.5,0,0,0-3.8,0-3.8Z"/>
        <path class="st4" d="M22-34.8c-.4-.4-.9-.8-1.7-.8s-1.2.3-1.2.8.4.7,1.3.9l.8.2c1,.2,1.8.6,1.8,1.7s-1.2,2-2.5,2-2.3-.7-2.7-1.3l.8-.6c.4.6,1,1,2,1s1.4-.4,1.4-.9-.5-.7-1.1-.8l-.9-.2c-1.1-.2-1.8-.7-1.8-1.7s1.1-1.8,2.3-1.8,2,.5,2.4.9l-.7.7Z"/>
        <path class="st4" d="M25.4-37.6h-1.1v-1.4h1.1v1.4ZM25.4-30.1h-1.1v-6.2h1.1v6.2Z"/>
        <path class="st4" d="M32.4-30.1h-1.1v-3.4c0-1.5-.5-2-1.4-2s-1.6.9-1.6,1.9v3.6h-1.1v-6.2h1.1v.9c.3-.6.9-1.1,1.9-1.1,1.5,0,2.1,1,2.1,2.5v3.8Z"/>
        <path class="st4" d="M35-33c0,1.4.8,2.1,1.9,2.1s1.7-.7,2-1.2l.8.6c-.4.7-1.3,1.6-2.8,1.6s-3-1.2-3-3.3,1.2-3.2,2.9-3.2,2.8,1.3,2.8,3.2v.2h-4.6ZM38.4-33.8c0-1-.6-1.8-1.7-1.8s-1.7.7-1.8,1.8h3.5Z"/>
        <path class="st4" d="M44.8-34.8c-.4-.4-.9-.8-1.7-.8s-1.2.3-1.2.8.4.7,1.3.9l.8.2c1,.2,1.8.6,1.8,1.7s-1.2,2-2.5,2-2.3-.7-2.7-1.3l.8-.6c.4.6,1,1,2,1s1.4-.4,1.4-.9-.5-.7-1.1-.8l-.9-.2c-1.1-.2-1.8-.7-1.8-1.7s1.1-1.8,2.3-1.8,2,.5,2.4.9l-.7.7Z"/>
        <path class="st4" d="M50.8-34.8c-.4-.4-.9-.8-1.7-.8s-1.2.3-1.2.8.4.7,1.3.9l.8.2c1,.2,1.8.6,1.8,1.7s-1.2,2-2.5,2-2.3-.7-2.7-1.3l.8-.6c.4.6,1,1,2,1s1.4-.4,1.4-.9-.5-.7-1.1-.8l-.9-.2c-1.1-.2-1.8-.7-1.8-1.7s1.1-1.8,2.3-1.8,2,.5,2.4.9l-.7.7Z"/>
        <path class="st4" d="M61-36.3l-2.3,6.2h-1.1l-2.2-6.2h1.2l1,3.1c.2.6.4,1.1.6,1.7h0c.2-.6.4-1.2.6-1.8l1.1-3.1h1.1Z"/>
        <path class="st4" d="M61.8-34.3c0-1.3,1-2.1,2.5-2.1s2.4.4,2.4,1.8c0,.3,0,.7,0,1.1v2.1c0,.5.1.7.5.7s.2,0,.2,0v.7c-.1,0-.3,0-.7,0-.6,0-1-.2-1-.8-.3.3-.8.9-2,.9s-2.2-.6-2.2-1.8,1.1-1.7,2.5-1.9h.8c.6-.2.9-.3.9-.8s-.3-1.1-1.4-1.1-1.5.5-1.5,1.3h-1ZM65.2-31.2c.3-.3.4-.6.4-1.2v-.9c0,0-.1.1-.5.2l-1.2.2c-.9.2-1.3.5-1.3,1.1s.6,1,1.3,1c.5,0,.9-.2,1.3-.5Z"/>
        <path class="st4" d="M69.6-30.1h-1.1v-8.8h1.1v8.8Z"/>
        <path class="st4" d="M71.4-36.3h1.1v3.4c0,1.5.4,2,1.4,2s1.5-.9,1.5-1.8v-3.6h1.1v6.2h-1.1v-.9c-.3.6-.9,1.1-1.9,1.1-1.5,0-2.1-1-2.1-2.5v-3.8Z"/>
        <path class="st4" d="M79.1-33c0,1.4.8,2.1,1.9,2.1s1.7-.7,1.9-1.2l.8.6c-.4.7-1.3,1.6-2.8,1.6s-3-1.2-3-3.3,1.2-3.2,2.9-3.2,2.8,1.3,2.8,3.2v.2h-4.6ZM82.5-33.8c0-1-.6-1.8-1.7-1.8s-1.7.7-1.8,1.8h3.5Z"/>
        <path class="st4" d="M90.7-36.5c1.8,0,2.9,1.3,2.9,3.3s-1.1,3.2-2.9,3.2-2.9-1.3-2.9-3.2c0-2,1.1-3.3,2.9-3.3ZM90.7-30.8c1.1,0,1.8-.9,1.8-2.4s-.7-2.4-1.8-2.4-1.8.9-1.8,2.4.8,2.4,1.8,2.4Z"/>
        <path class="st4" d="M98-35.5h-1.4v5.4h-1.1v-5.4h-1.3v-.8h1.3v-1.1c0-.5,0-.8.2-1.1.3-.4.7-.6,1.4-.6s.7,0,.9,0v.9c-.2,0-.4,0-.7,0s-.5,0-.6.2c-.1.1-.2.3-.2.7v1h1.4s0,.8,0,.8Z"/>
        <path class="st4" d="M101.5-33.2c0-2,1.1-3.3,2.7-3.3s1.6.5,1.9,1.1v-3.6h1.1v8.8h-1.1v-.9c-.4.6-1,1.1-1.9,1.1-1.6,0-2.7-1.2-2.7-3.2ZM104.4-35.6c-1.1,0-1.8.8-1.8,2.3s.7,2.3,1.8,2.3,1.8-.9,1.8-2.3-.7-2.4-1.8-2.4Z"/>
        <path class="st4" d="M109.8-33c0,1.4.8,2.1,1.9,2.1s1.7-.7,1.9-1.2l.8.6c-.4.7-1.3,1.6-2.8,1.6s-3-1.2-3-3.3,1.2-3.2,2.9-3.2,2.8,1.3,2.8,3.2v.2h-4.6ZM113.3-33.8c0-1-.6-1.8-1.7-1.8s-1.7.7-1.8,1.8h3.5Z"/>
        <path class="st4" d="M119.6-34.8c-.4-.4-.9-.8-1.7-.8s-1.2.3-1.2.8.4.7,1.3.9l.8.2c1,.2,1.8.6,1.8,1.7s-1.2,2-2.5,2-2.3-.7-2.7-1.3l.8-.6c.4.6,1,1,1.9,1s1.4-.4,1.4-.9-.5-.7-1.1-.8l-.9-.2c-1.1-.2-1.8-.7-1.8-1.7s1.1-1.8,2.3-1.8,2,.5,2.4.9l-.7.7Z"/>
        <path class="st4" d="M123-37.6h-1.1v-1.4h1.1v1.4ZM123-30.1h-1.1v-6.2h1.1v6.2Z"/>
        <path class="st4" d="M125.8-29.8c0,.8.4,1.4,1.6,1.4s1.7-.8,1.7-2.1v-.6c-.3.5-.9,1-1.9,1-1.6,0-2.7-1.2-2.7-3.1s1.1-3.2,2.7-3.2,1.6.5,1.9,1v-.9h1.1v5.9c0,2-.9,2.9-2.8,2.9s-2.6-.9-2.7-2.1l1.1-.2ZM127.4-35.5c-1.1,0-1.8.8-1.8,2.3s.6,2.2,1.8,2.2,1.8-.8,1.8-2.2-.7-2.3-1.8-2.3Z"/>
        <path class="st4" d="M137.2-30.1h-1.1v-3.4c0-1.5-.5-2-1.4-2s-1.6.9-1.6,1.9v3.6h-1.1v-6.2h1.1v.9c.3-.6.9-1.1,1.9-1.1,1.5,0,2.1,1,2.1,2.5v3.8Z"/>
        <path class="st4" d="M4.2-21.9v2.8h4.4v1h-4.4v3h5.1v1H3.1v-8.8h6v1h-4.8Z"/>
        <path class="st4" d="M15.5-20.3l-2,3,2.2,3.2h-1.3l-1.6-2.4-1.6,2.4h-1.2l2.2-3.2-2-3h1.3l1.4,2.1,1.4-2.1h1.2Z"/>
        <path class="st4" d="M21.9-14.1h-1.1v-3.4c0-1.5-.5-2-1.4-2s-1.6.9-1.6,1.9v3.6h-1.1v-8.8h1.1v3.6c.3-.6.9-1.1,1.9-1.1,1.5,0,2.1,1,2.1,2.5,0,0,0,3.8,0,3.8Z"/>
        <path class="st4" d="M24.8-21.6h-1.1v-1.4h1.1v1.4ZM24.8-14.1h-1.1v-6.2h1.1v6.2Z"/>
        <path class="st4" d="M27.8-15v.9h-1.1v-8.8h1.1v3.6c.3-.6,1-1.1,1.9-1.1,1.6,0,2.7,1.2,2.7,3.3s-1.1,3.2-2.7,3.2c-.9,0-1.6-.5-1.9-1.1ZM29.5-14.9c1.1,0,1.8-.9,1.8-2.3s-.7-2.3-1.8-2.3-1.8.9-1.8,2.4c0,1.5.7,2.3,1.8,2.3Z"/>
        <path class="st4" d="M34.9-21.6h-1.1v-1.4h1.1s0,1.4,0,1.4ZM34.9-14.1h-1.1v-6.2h1.1s0,6.2,0,6.2Z"/>
        <path class="st4" d="M39.9-14.1c-.2,0-.6.1-1.1.1-1,0-1.5-.4-1.5-1.3v-4.2h-1.3v-.8h1.3v-2.2l1.1-.2v2.5h1.5v.8h-1.5v3.8c0,.6.2.8.7.8s.6,0,.8-.1c0,0,0,.9,0,.9Z"/>
        <path class="st4" d="M44.2-19.2c-.2-.4-.2-.8-.2-1.2,0-1.5,1.2-2.7,3-2.7s2.9,1.2,2.9,2.8c0,2.5-3.1,4.3-4.3,5.2h4.4v1h-6v-.9c.7-.5,1.7-1.2,2.9-2.3,1-.9,1.8-1.7,1.8-2.9s-.8-1.9-1.8-1.9-1.7.9-1.7,1.8.2,1,.3,1.2l-1.2-.2Z"/>
        <path class="st4" d="M57-20.5c1.8,0,2.9,1.3,2.9,3.3s-1.1,3.2-2.9,3.2-2.9-1.3-2.9-3.2c0-2,1.1-3.3,2.9-3.3ZM57-14.8c1.1,0,1.8-.9,1.8-2.4s-.7-2.4-1.8-2.4-1.8.9-1.8,2.4.8,2.4,1.8,2.4Z"/>
        <path class="st4" d="M64.3-19.5h-1.4v5.4h-1.1v-5.4h-1.3v-.8h1.3v-1.1c0-.5,0-.8.2-1.1.3-.4.7-.6,1.4-.6s.7,0,.9,0v.9c-.2,0-.4,0-.7,0s-.5,0-.6.2c-.1.1-.2.3-.2.7v1h1.4v.8Z"/>
        <path class="st4" d="M68-17.9l.5-5.1h4.9v1h-4l-.2,2.6c.2-.3.9-.8,1.9-.8,1.7,0,2.9,1.1,2.9,3s-1.1,3.2-3.1,3.2-2.7-.8-3-2.2l1.1-.4c.1.8.8,1.7,1.9,1.7s1.9-.9,1.9-2.2-.7-2.1-1.9-2.1-1.6.6-1.8,1.5l-1-.2Z"/>
      </g>
    </g>
  </g>
</svg>